<?xml version="1.0" encoding="UTF-8"?>
<!DOCTYPE svg PUBLIC "-//W3C//DTD SVG 1.1//EN" "http://www.w3.org/Graphics/SVG/1.1/DTD/svg11.dtd">
<svg xmlns="http://www.w3.org/2000/svg" version="1.1" width="278px" height="320px" style="shape-rendering:geometricPrecision; text-rendering:geometricPrecision; image-rendering:optimizeQuality; fill-rule:evenodd; clip-rule:evenodd" xmlns:xlink="http://www.w3.org/1999/xlink">
<g><path style="opacity:0.961" fill="#c1ef77" d="M 77.5,-0.5 C 78.5,-0.5 79.5,-0.5 80.5,-0.5C 97.6475,11.963 116.981,17.963 138.5,17.5C 160.019,17.963 179.352,11.963 196.5,-0.5C 197.5,-0.5 198.5,-0.5 199.5,-0.5C 225.365,13.683 251.365,27.683 277.5,41.5C 277.5,42.5 277.5,43.5 277.5,44.5C 271.481,55.7199 267.314,67.7199 265,80.5C 263.537,88.8151 262.204,97.1485 261,105.5C 258.921,136.187 256.588,166.854 254,197.5C 250.943,224.689 241.609,249.355 226,271.5C 213.781,285.73 199.281,296.896 182.5,305C 169.146,310.95 155.48,315.783 141.5,319.5C 139.5,319.5 137.5,319.5 135.5,319.5C 106.862,313.229 81.5282,300.396 59.5,281C 38.0709,257.434 25.9043,229.6 23,197.5C 20.361,167.193 18.0276,136.859 16,106.5C 14.3974,91.2168 11.3974,76.2168 7,61.5C 5.14818,55.4064 2.64818,49.7397 -0.5,44.5C -0.5,43.5 -0.5,42.5 -0.5,41.5C 25.6655,27.6781 51.6655,13.6781 77.5,-0.5 Z"/></g>
<g><path style="opacity:1" fill="#0b6f2c" d="M 77.5,7.5 C 80.9938,10.1443 84.6605,12.6443 88.5,15C 121.479,28.755 154.479,28.755 187.5,15C 191.258,13.0771 194.591,10.5771 197.5,7.5C 221.191,20.0085 244.524,33.0085 267.5,46.5C 259.701,65.1077 254.534,84.4411 252,104.5C 249.54,136.161 247.207,167.827 245,199.5C 239.644,244.14 217.144,276.64 177.5,297C 165.945,302.776 153.945,307.443 141.5,311C 138.833,311.667 136.167,311.667 133.5,311C 103.961,302.826 78.7948,287.659 58,265.5C 40.576,242.194 31.2427,215.861 30,186.5C 28.5527,156.427 26.2193,126.427 23,96.5C 20.5693,78.9388 15.736,62.1054 8.5,46C 31.5623,33.139 54.5623,20.3056 77.5,7.5 Z"/></g>
<g><path style="opacity:1" fill="#f0c00f" d="M 83.5,22.5 C 87.0563,25.2809 88.7229,28.9476 88.5,33.5C 83.7291,34.2582 79.7291,32.9249 76.5,29.5C 76.0248,27.2163 75.0248,25.2163 73.5,23.5C 74.3339,22.2521 75.6672,21.5854 77.5,21.5C 79.5477,21.6718 81.5477,22.0051 83.5,22.5 Z"/></g>
<g><path style="opacity:1" fill="#f1c10f" d="M 197.5,21.5 C 202.189,22.8558 205.189,25.8558 206.5,30.5C 206.5,31.5 206.5,32.5 206.5,33.5C 204.5,33.5 202.5,33.5 200.5,33.5C 196.188,31.1881 192.855,27.8548 190.5,23.5C 192.608,22.0562 194.941,21.3896 197.5,21.5 Z"/></g>
<g><path style="opacity:1" fill="#37390e" d="M 211.5,25.5 C 211.897,24.475 212.563,24.3083 213.5,25C 216.106,26.9384 217.939,29.4384 219,32.5C 219.628,29.0465 220.795,28.7131 222.5,31.5C 221.624,31.3691 220.957,31.7025 220.5,32.5C 219.67,35.0164 218.67,37.3498 217.5,39.5C 218.752,33.3469 216.752,28.6802 211.5,25.5 Z"/></g>
<g><path style="opacity:1" fill="#ecbd0e" d="M 69.5,25.5 C 72.2948,26.063 74.6282,27.3963 76.5,29.5C 78.1087,32.279 77.442,34.279 74.5,35.5C 72.1667,35.5 69.8333,35.5 67.5,35.5C 65.4504,33.4525 63.117,31.7859 60.5,30.5C 59.3157,29.3121 59.3157,28.1455 60.5,27C 63.3508,25.7114 66.3508,25.2114 69.5,25.5 Z"/></g>
<g><path style="opacity:1" fill="#1a2a0f" d="M 73.5,23.5 C 75.0248,25.2163 76.0248,27.2163 76.5,29.5C 74.6282,27.3963 72.2948,26.063 69.5,25.5C 70.6715,24.6554 72.0048,23.9887 73.5,23.5 Z"/></g>
<g><path style="opacity:1" fill="#ebbc0e" d="M 93.5,24.5 C 94.8993,25.8897 96.5659,26.8897 98.5,27.5C 100.65,30.472 101.65,33.8053 101.5,37.5C 100.842,38.3984 100.176,39.3984 99.5,40.5C 97.9246,39.5435 96.258,38.8769 94.5,38.5C 91.4596,34.7252 89.4596,30.3919 88.5,25.5C 90.0453,24.5481 91.712,24.2148 93.5,24.5 Z"/></g>
<g><path style="opacity:1" fill="#f4c30f" d="M 211.5,25.5 C 216.752,28.6802 218.752,33.3469 217.5,39.5C 216.571,40.9361 215.405,42.2695 214,43.5C 212.629,41.9586 211.129,40.6253 209.5,39.5C 209.672,38.5084 209.338,37.8417 208.5,37.5C 208.5,35.5 208.5,33.5 208.5,31.5C 209.06,29.1992 209.56,26.8659 210,24.5C 210.383,25.056 210.883,25.3893 211.5,25.5 Z"/></g>
<g><path style="opacity:1" fill="#edbe0f" d="M 184.5,25.5 C 188.742,26.7411 191.742,29.4078 193.5,33.5C 193.5,34.1667 193.5,34.8333 193.5,35.5C 190.078,37.9741 186.412,37.9741 182.5,35.5C 181.345,32.5251 179.678,29.8584 177.5,27.5C 179.608,26.0562 181.941,25.3896 184.5,25.5 Z"/></g>
<g><path style="opacity:1" fill="#244618" d="M 197.5,21.5 C 194.941,21.3896 192.608,22.0562 190.5,23.5C 192.855,27.8548 196.188,31.1881 200.5,33.5C 200.5,33.8333 200.5,34.1667 200.5,34.5C 197.805,34.067 195.638,32.7337 194,30.5C 193.517,31.448 193.351,32.448 193.5,33.5C 191.742,29.4078 188.742,26.7411 184.5,25.5C 186.199,25.6602 187.866,25.4935 189.5,25C 188.354,22.4428 189.354,21.1095 192.5,21C 194.387,20.2204 196.054,20.3871 197.5,21.5 Z"/></g>
<g><path style="opacity:1" fill="#eabc0e" d="M 104.5,28.5 C 105.833,28.8333 107.167,29.1667 108.5,29.5C 109.793,31.2959 111.293,32.9625 113,34.5C 113.667,37.8333 113.667,41.1667 113,44.5C 112.329,45.2524 111.496,45.5858 110.5,45.5C 106.146,43.141 103.813,39.4743 103.5,34.5C 103.643,32.7376 103.309,31.0709 102.5,29.5C 102.957,28.7025 103.624,28.3691 104.5,28.5 Z"/></g>
<g><path style="opacity:1" fill="#f0c00f" d="M 173.5,41.5 C 172.71,40.5987 171.71,39.9321 170.5,39.5C 169.331,36.4887 167.664,33.822 165.5,31.5C 174.986,27.4327 179.986,30.766 180.5,41.5C 178.167,41.5 175.833,41.5 173.5,41.5 Z"/></g>
<g><path style="opacity:1" fill="#283811" d="M 184.5,25.5 C 181.941,25.3896 179.608,26.0562 177.5,27.5C 179.678,29.8584 181.345,32.5251 182.5,35.5C 181.532,37.6074 181.198,39.9407 181.5,42.5C 178.615,42.8064 175.948,42.4731 173.5,41.5C 175.833,41.5 178.167,41.5 180.5,41.5C 179.986,30.766 174.986,27.4327 165.5,31.5C 163.767,30.9924 163.434,30.159 164.5,29C 167.882,28.8236 171.215,28.3236 174.5,27.5C 177.624,24.8823 180.957,24.2156 184.5,25.5 Z"/></g>
<g><path style="opacity:1" fill="#1a3713" d="M 60.5,30.5 C 63.117,31.7859 65.4504,33.4525 67.5,35.5C 66.6618,35.8417 66.3284,36.5084 66.5,37.5C 63.1796,33.3445 58.8462,31.6778 53.5,32.5C 55.8333,31.8333 58.1667,31.1667 60.5,30.5 Z"/></g>
<g><path style="opacity:1" fill="#212a0e" d="M 83.5,22.5 C 86.9828,23.0101 90.3162,23.6768 93.5,24.5C 91.712,24.2148 90.0453,24.5481 88.5,25.5C 89.4596,30.3919 91.4596,34.7252 94.5,38.5C 92.6159,38.2882 91.2826,37.2882 90.5,35.5C 86.8261,34.7675 83.1594,34.1008 79.5,33.5C 78.1502,34.9501 76.4835,35.6168 74.5,35.5C 77.442,34.279 78.1087,32.279 76.5,29.5C 79.7291,32.9249 83.7291,34.2582 88.5,33.5C 88.7229,28.9476 87.0563,25.2809 83.5,22.5 Z"/></g>
<g><path style="opacity:1" fill="#103a17" d="M 98.5,27.5 C 99.7498,27.5774 100.583,28.244 101,29.5C 101.924,27.5049 103.09,27.1716 104.5,28.5C 103.624,28.3691 102.957,28.7025 102.5,29.5C 103.309,31.0709 103.643,32.7376 103.5,34.5C 102.833,35.5 102.167,36.5 101.5,37.5C 101.65,33.8053 100.65,30.472 98.5,27.5 Z"/></g>
<g><path style="opacity:1" fill="#f2c20f" d="M 222.5,31.5 C 223.864,33.1911 225.197,34.8577 226.5,36.5C 226.677,40.2343 226.344,43.9009 225.5,47.5C 224.162,49.1128 222.495,49.6128 220.5,49C 219.601,47.3484 218.601,45.8484 217.5,44.5C 217.5,42.8333 217.5,41.1667 217.5,39.5C 218.67,37.3498 219.67,35.0164 220.5,32.5C 220.957,31.7025 221.624,31.3691 222.5,31.5 Z"/></g>
<g><path style="opacity:1" fill="#273f13" d="M 108.5,29.5 C 110.371,29.8588 111.871,30.8588 113,32.5C 114.97,30.3316 117.137,29.9983 119.5,31.5C 117.801,31.3398 116.134,31.5065 114.5,32C 116.113,34.2276 116.78,36.7276 116.5,39.5C 114.837,41.4385 114.171,43.7718 114.5,46.5C 112.901,46.7678 111.568,46.4345 110.5,45.5C 111.496,45.5858 112.329,45.2524 113,44.5C 113.667,41.1667 113.667,37.8333 113,34.5C 111.293,32.9625 109.793,31.2959 108.5,29.5 Z"/></g>
<g><path style="opacity:1" fill="#ebbc0e" d="M 119.5,31.5 C 121.463,32.8202 123.463,34.1535 125.5,35.5C 128.1,39.6096 128.1,43.6096 125.5,47.5C 121.233,46.2316 118.233,43.5649 116.5,39.5C 116.78,36.7276 116.113,34.2276 114.5,32C 116.134,31.5065 117.801,31.3398 119.5,31.5 Z"/></g>
<g><path style="opacity:1" fill="#f0c00f" d="M 159.5,31.5 C 160.514,32.6737 161.847,33.3404 163.5,33.5C 166.115,37.0088 167.115,41.0088 166.5,45.5C 165.167,45.5 163.833,45.5 162.5,45.5C 160.78,44.6923 159.113,43.6923 157.5,42.5C 156.153,38.7882 154.82,35.1216 153.5,31.5C 155.5,31.5 157.5,31.5 159.5,31.5 Z"/></g>
<g><path style="opacity:1" fill="#08712d" d="M 200.5,34.5 C 202.833,34.5 205.167,34.5 207.5,34.5C 207.263,35.791 207.596,36.791 208.5,37.5C 209.338,37.8417 209.672,38.5084 209.5,39.5C 209.859,41.371 210.859,42.871 212.5,44C 214.342,43.932 216.009,44.0986 217.5,44.5C 218.601,45.8484 219.601,47.3484 220.5,49C 222.495,49.6128 224.162,49.1128 225.5,47.5C 226.167,48.8333 226.833,50.1667 227.5,51.5C 228.604,53.3885 229.937,55.0552 231.5,56.5C 232.496,56.5858 233.329,56.2524 234,55.5C 234.232,56.7375 234.732,57.7375 235.5,58.5C 235.5,58.8333 235.5,59.1667 235.5,59.5C 237.159,64.118 238.826,68.7847 240.5,73.5C 239.377,75.5806 238.377,77.7473 237.5,80C 238.13,81.3102 239.13,82.1435 240.5,82.5C 240.5,83.1667 240.5,83.8333 240.5,84.5C 236.469,86.5535 234.469,89.8868 234.5,94.5C 234.918,95.2216 235.584,95.7216 236.5,96C 235.944,96.3826 235.611,96.8826 235.5,97.5C 234.525,99.7952 233.192,101.795 231.5,103.5C 230.224,104.386 230.224,105.386 231.5,106.5C 233.336,107.028 235.003,107.694 236.5,108.5C 233.78,110.917 231.78,113.917 230.5,117.5C 231.243,118.182 231.909,118.849 232.5,119.5C 233.167,120.167 233.833,120.833 234.5,121.5C 231.519,124.135 230.186,127.468 230.5,131.5C 231.833,132.167 233.167,132.833 234.5,133.5C 231.494,136.17 229.494,139.503 228.5,143.5C 230.229,144.236 231.229,145.57 231.5,147.5C 229.926,149.643 228.592,151.976 227.5,154.5C 228.243,155.182 228.909,155.849 229.5,156.5C 230.609,157.29 231.942,157.79 233.5,158C 232.944,158.383 232.611,158.883 232.5,159.5C 228.977,161.873 226.977,165.207 226.5,169.5C 227.263,170.268 228.263,170.768 229.5,171C 230.252,171.671 230.586,172.504 230.5,173.5C 228.334,175.452 227.001,177.952 226.5,181C 226.836,182.03 227.503,182.53 228.5,182.5C 229.833,183.167 231.167,183.833 232.5,184.5C 229.789,186.275 227.789,188.609 226.5,191.5C 225.073,194.129 225.739,196.295 228.5,198C 227.944,198.383 227.611,198.883 227.5,199.5C 226.237,201.696 225.237,204.03 224.5,206.5C 224.543,207.416 224.876,208.083 225.5,208.5C 225.918,209.222 226.584,209.722 227.5,210C 226.944,210.383 226.611,210.883 226.5,211.5C 224.614,212.93 222.947,214.597 221.5,216.5C 220.661,217.641 219.994,218.974 219.5,220.5C 220.325,221.386 221.325,221.719 222.5,221.5C 222.5,221.833 222.5,222.167 222.5,222.5C 221.508,222.328 220.842,222.662 220.5,223.5C 219.207,225.296 217.707,226.963 216,228.5C 215.516,230.193 216.016,231.527 217.5,232.5C 217.167,233.167 216.833,233.833 216.5,234.5C 214.215,236.118 212.215,238.118 210.5,240.5C 211.901,241.521 213.235,242.521 214.5,243.5C 212.249,244.015 210.249,245.015 208.5,246.5C 207.544,247.659 206.544,248.826 205.5,250C 205.978,251.303 206.645,252.469 207.5,253.5C 205.5,254.167 203.5,254.833 201.5,255.5C 200.035,256.737 198.368,257.737 196.5,258.5C 195.201,260.153 195.534,261.653 197.5,263C 196.906,263.464 196.239,263.631 195.5,263.5C 190.988,263.089 187.654,264.756 185.5,268.5C 185.414,269.496 185.748,270.329 186.5,271C 183.305,271.181 180.305,271.681 177.5,272.5C 177.158,273.338 176.492,273.672 175.5,273.5C 173.824,274.183 173.157,275.517 173.5,277.5C 170.615,277.194 167.948,277.527 165.5,278.5C 164.609,279.11 163.609,279.443 162.5,279.5C 161.566,280.568 161.232,281.901 161.5,283.5C 157.818,283.335 154.152,283.501 150.5,284C 149.167,285.667 149.167,287.333 150.5,289C 149.906,289.464 149.239,289.631 148.5,289.5C 147.005,289.011 145.671,288.345 144.5,287.5C 140.351,286.676 136.351,286.676 132.5,287.5C 129.749,285.025 126.416,284.025 122.5,284.5C 122.737,285.791 122.404,286.791 121.5,287.5C 119.273,283.61 115.94,281.276 111.5,280.5C 110.609,281.11 109.609,281.443 108.5,281.5C 108.737,280.209 108.404,279.209 107.5,278.5C 106.211,275.21 103.877,272.877 100.5,271.5C 99.7025,271.957 99.3691,272.624 99.5,273.5C 98.8826,273.611 98.3826,273.944 98,274.5C 97.3918,272.934 96.5585,271.6 95.5,270.5C 94.2153,268.548 92.5486,266.882 90.5,265.5C 89.4822,266.193 88.4822,266.859 87.5,267.5C 86.8333,265.833 86.1667,264.167 85.5,262.5C 84.1156,260.03 82.1156,258.363 79.5,257.5C 77.9724,256.198 76.9724,254.531 76.5,252.5C 75.8375,248.839 73.8375,247.839 70.5,249.5C 69.8333,246.5 69.1667,243.5 68.5,240.5C 67.8333,240.167 67.1667,239.833 66.5,239.5C 65.5,239.5 64.5,239.5 63.5,239.5C 63.8226,235.774 63.4892,232.107 62.5,228.5C 61.8933,228.624 61.56,228.957 61.5,229.5C 60.1667,229.833 58.8333,230.167 57.5,230.5C 56.7611,230.631 56.0944,230.464 55.5,230C 56.8228,229.184 57.4894,228.017 57.5,226.5C 57.5,225.833 57.5,225.167 57.5,224.5C 58.9931,223.688 59.6598,222.355 59.5,220.5C 59.3333,219.5 59.1667,218.5 59,217.5C 57.4905,216.91 55.9905,216.244 54.5,215.5C 55.4173,212.242 55.7507,208.909 55.5,205.5C 53.4727,205.662 51.4727,205.495 49.5,205C 52.8826,201.556 54.2159,197.39 53.5,192.5C 51.5168,192.843 50.1834,192.176 49.5,190.5C 50.1495,188.565 50.4828,186.565 50.5,184.5C 51.8333,183.5 51.8333,182.5 50.5,181.5C 49.1667,180.833 47.8333,180.167 46.5,179.5C 47.1667,178.167 48.1667,177.167 49.5,176.5C 51.2655,173.877 51.9321,170.877 51.5,167.5C 49.8008,167.66 48.1341,167.494 46.5,167C 47.8228,166.184 48.4894,165.017 48.5,163.5C 49.6227,161.021 49.6227,158.688 48.5,156.5C 47.3915,155.71 46.0581,155.21 44.5,155C 46.751,154.252 48.0844,152.752 48.5,150.5C 49.2186,148.236 49.552,145.903 49.5,143.5C 47.7809,142.978 46.4475,141.978 45.5,140.5C 48.4811,137.865 49.8144,134.532 49.5,130.5C 47.5,129.833 45.5,129.167 43.5,128.5C 45.9547,126.368 47.6214,123.701 48.5,120.5C 49.404,119.791 49.7373,118.791 49.5,117.5C 47.6916,117.509 46.0249,117.009 44.5,116C 46.747,114.005 47.747,111.505 47.5,108.5C 48.7759,107.614 48.7759,106.614 47.5,105.5C 45.8849,104.846 44.2182,104.346 42.5,104C 43.5822,102.67 44.2488,101.17 44.5,99.5C 44.5,99.1667 44.5,98.8333 44.5,98.5C 45.4614,96.7354 45.7947,94.7354 45.5,92.5C 43.5853,92.7845 41.9187,92.4511 40.5,91.5C 41.2632,89.6316 42.2632,87.9649 43.5,86.5C 44.7879,84.9652 44.7879,83.2985 43.5,81.5C 41.3432,80.9495 39.3432,80.2829 37.5,79.5C 39.3908,76.3858 40.7241,73.0525 41.5,69.5C 40.1667,68.8333 38.8333,68.1667 37.5,67.5C 39.1996,65.7901 40.5329,63.7901 41.5,61.5C 41.3764,60.8933 41.0431,60.56 40.5,60.5C 40.5,59.8333 40.5,59.1667 40.5,58.5C 42.0495,57.5592 43.7162,56.8925 45.5,56.5C 49.1221,55.8984 49.4554,54.3984 46.5,52C 48.8333,51.6667 51.1667,51.3333 53.5,51C 54.056,50.6174 54.3893,50.1174 54.5,49.5C 55.562,47.9008 55.562,46.2341 54.5,44.5C 54.5,43.1667 55.1667,42.5 56.5,42.5C 60.3935,42.8902 64.0602,42.2235 67.5,40.5C 66.8728,39.5832 66.5394,38.5832 66.5,37.5C 66.3284,36.5084 66.6618,35.8417 67.5,35.5C 69.8333,35.5 72.1667,35.5 74.5,35.5C 76.4835,35.6168 78.1502,34.9501 79.5,33.5C 83.1594,34.1008 86.8261,34.7675 90.5,35.5C 91.2826,37.2882 92.6159,38.2882 94.5,38.5C 96.258,38.8769 97.9246,39.5435 99.5,40.5C 100.176,39.3984 100.842,38.3984 101.5,37.5C 102.167,36.5 102.833,35.5 103.5,34.5C 103.813,39.4743 106.146,43.141 110.5,45.5C 111.568,46.4345 112.901,46.7678 114.5,46.5C 114.171,43.7718 114.837,41.4385 116.5,39.5C 118.233,43.5649 121.233,46.2316 125.5,47.5C 126.189,48.7736 127.023,48.7736 128,47.5C 128.333,44.8333 128.667,42.1667 129,39.5C 129.278,40.4158 129.778,41.0825 130.5,41.5C 132.547,45.6897 135.88,47.523 140.5,47C 141.056,46.6174 141.389,46.1174 141.5,45.5C 142.268,44.7375 142.768,43.7375 143,42.5C 143.383,43.056 143.883,43.3893 144.5,43.5C 146.67,45.0862 149.004,46.4196 151.5,47.5C 152.568,48.4345 153.901,48.7678 155.5,48.5C 155.337,46.1432 155.503,43.8098 156,41.5C 156.383,42.056 156.883,42.3893 157.5,42.5C 159.113,43.6923 160.78,44.6923 162.5,45.5C 164.035,46.7879 165.701,46.7879 167.5,45.5C 167.771,42.9527 168.771,40.9527 170.5,39.5C 171.71,39.9321 172.71,40.5987 173.5,41.5C 175.948,42.4731 178.615,42.8064 181.5,42.5C 181.198,39.9407 181.532,37.6074 182.5,35.5C 182.577,36.7498 183.244,37.5831 184.5,38C 187.817,38.4983 191.15,38.665 194.5,38.5C 194.737,37.209 194.404,36.209 193.5,35.5C 193.5,34.8333 193.5,34.1667 193.5,33.5C 193.351,32.448 193.517,31.448 194,30.5C 195.638,32.7337 197.805,34.067 200.5,34.5 Z"/></g>
<g><path style="opacity:1" fill="#ecbd0e" d="M 53.5,32.5 C 58.8462,31.6778 63.1796,33.3445 66.5,37.5C 66.5394,38.5832 66.8728,39.5832 67.5,40.5C 64.0602,42.2235 60.3935,42.8902 56.5,42.5C 53.7613,40.1492 51.0946,37.8159 48.5,35.5C 50.674,35.2503 52.3406,34.2503 53.5,32.5 Z"/></g>
<g><path style="opacity:1" fill="#ebbc0e" d="M 131.5,32.5 C 132.833,32.8333 134.167,33.1667 135.5,33.5C 139.593,36.3521 141.593,40.3521 141.5,45.5C 141.389,46.1174 141.056,46.6174 140.5,47C 135.88,47.523 132.547,45.6897 130.5,41.5C 130.127,38.4261 129.461,35.4261 128.5,32.5C 129.5,32.5 130.5,32.5 131.5,32.5 Z"/></g>
<g><path style="opacity:1" fill="#e9ba0e" d="M 145.5,32.5 C 147.05,33.4408 148.716,34.1075 150.5,34.5C 153.821,38.1353 155.155,42.4686 154.5,47.5C 153.5,47.5 152.5,47.5 151.5,47.5C 149.004,46.4196 146.67,45.0862 144.5,43.5C 143.751,39.9176 142.418,36.5843 140.5,33.5C 142.045,32.5481 143.712,32.2148 145.5,32.5 Z"/></g>
<g><path style="opacity:1" fill="#191b05" d="M 206.5,30.5 C 207.167,30.8333 207.833,31.1667 208.5,31.5C 208.5,33.5 208.5,35.5 208.5,37.5C 207.596,36.791 207.263,35.791 207.5,34.5C 205.167,34.5 202.833,34.5 200.5,34.5C 200.5,34.1667 200.5,33.8333 200.5,33.5C 202.5,33.5 204.5,33.5 206.5,33.5C 206.5,32.5 206.5,31.5 206.5,30.5 Z"/></g>
<g><path style="opacity:1" fill="#1b3713" d="M 159.5,31.5 C 157.5,31.5 155.5,31.5 153.5,31.5C 154.82,35.1216 156.153,38.7882 157.5,42.5C 156.883,42.3893 156.383,42.056 156,41.5C 155.503,43.8098 155.337,46.1432 155.5,48.5C 153.901,48.7678 152.568,48.4345 151.5,47.5C 152.5,47.5 153.5,47.5 154.5,47.5C 155.155,42.4686 153.821,38.1353 150.5,34.5C 151.239,34.631 151.906,34.4643 152.5,34C 151.663,32.9887 151.33,31.8221 151.5,30.5C 154.385,30.1936 157.052,30.5269 159.5,31.5 Z"/></g>
<g><path style="opacity:1" fill="#2e4b18" d="M 165.5,31.5 C 167.664,33.822 169.331,36.4887 170.5,39.5C 168.771,40.9527 167.771,42.9527 167.5,45.5C 165.701,46.7879 164.035,46.7879 162.5,45.5C 163.833,45.5 165.167,45.5 166.5,45.5C 167.115,41.0088 166.115,37.0088 163.5,33.5C 164.833,33.5 165.5,32.8333 165.5,31.5 Z"/></g>
<g><path style="opacity:1" fill="#393b0d" d="M 182.5,35.5 C 186.412,37.9741 190.078,37.9741 193.5,35.5C 194.404,36.209 194.737,37.209 194.5,38.5C 191.15,38.665 187.817,38.4983 184.5,38C 183.244,37.5831 182.577,36.7498 182.5,35.5 Z"/></g>
<g><path style="opacity:1" fill="#1c3815" d="M 131.5,32.5 C 130.5,32.5 129.5,32.5 128.5,32.5C 129.461,35.4261 130.127,38.4261 130.5,41.5C 129.778,41.0825 129.278,40.4158 129,39.5C 128.667,42.1667 128.333,44.8333 128,47.5C 127.023,48.7736 126.189,48.7736 125.5,47.5C 128.1,43.6096 128.1,39.6096 125.5,35.5C 127.758,35.2249 128.092,34.2249 126.5,32.5C 128.299,31.2121 129.965,31.2121 131.5,32.5 Z"/></g>
<g><path style="opacity:1" fill="#f1c10f" d="M 232.5,37.5 C 233.864,39.1911 235.197,40.8577 236.5,42.5C 236.665,45.5184 236.498,48.5184 236,51.5C 234.293,53.0375 232.793,54.7041 231.5,56.5C 229.937,55.0552 228.604,53.3885 227.5,51.5C 226.993,45.8848 228.66,41.2181 232.5,37.5 Z"/></g>
<g><path style="opacity:1" fill="#2a3510" d="M 232.5,37.5 C 228.66,41.2181 226.993,45.8848 227.5,51.5C 226.833,50.1667 226.167,48.8333 225.5,47.5C 226.344,43.9009 226.677,40.2343 226.5,36.5C 227.315,37.4293 228.148,38.4293 229,39.5C 229.219,38.062 229.719,36.7287 230.5,35.5C 231.522,35.8555 232.189,36.5222 232.5,37.5 Z"/></g>
<g><path style="opacity:1" fill="#edbd0e" d="M 54.5,44.5 C 55.562,46.2341 55.562,47.9008 54.5,49.5C 51.5314,50.3287 48.5314,50.4954 45.5,50C 43.5952,48.5787 41.5952,47.412 39.5,46.5C 38.5707,45.6851 37.5707,44.8518 36.5,44C 37.5707,43.1482 38.5707,42.3149 39.5,41.5C 45.1817,39.4968 50.1817,40.4968 54.5,44.5 Z"/></g>
<g><path style="opacity:1" fill="#1b4018" d="M 48.5,35.5 C 51.0946,37.8159 53.7613,40.1492 56.5,42.5C 55.1667,42.5 54.5,43.1667 54.5,44.5C 50.1817,40.4968 45.1817,39.4968 39.5,41.5C 41.667,39.4887 44.3337,38.3221 47.5,38C 46.434,36.841 46.7673,36.0076 48.5,35.5 Z"/></g>
<g><path style="opacity:1" fill="#28310d" d="M 209.5,39.5 C 211.129,40.6253 212.629,41.9586 214,43.5C 215.405,42.2695 216.571,40.9361 217.5,39.5C 217.5,41.1667 217.5,42.8333 217.5,44.5C 216.009,44.0986 214.342,43.932 212.5,44C 210.859,42.871 209.859,41.371 209.5,39.5 Z"/></g>
<g><path style="opacity:1" fill="#143f17" d="M 145.5,32.5 C 143.712,32.2148 142.045,32.5481 140.5,33.5C 142.418,36.5843 143.751,39.9176 144.5,43.5C 143.883,43.3893 143.383,43.056 143,42.5C 142.768,43.7375 142.268,44.7375 141.5,45.5C 141.593,40.3521 139.593,36.3521 135.5,33.5C 137.826,32.8489 140.159,32.1822 142.5,31.5C 143.726,31.5195 144.726,31.8529 145.5,32.5 Z"/></g>
<g><path style="opacity:1" fill="#edbe0e" d="M 244.5,47.5 C 245.766,51.4677 245.766,55.4677 244.5,59.5C 242.264,60.3891 240.264,61.7224 238.5,63.5C 237.479,62.0986 236.479,60.7653 235.5,59.5C 235.5,59.1667 235.5,58.8333 235.5,58.5C 235.343,57.1266 235.51,55.7932 236,54.5C 237.356,51.6711 238.856,49.0045 240.5,46.5C 241.999,44.1978 243.332,44.5311 244.5,47.5 Z"/></g>
<g><path style="opacity:1" fill="#1c3010" d="M 39.5,46.5 C 41.5952,47.412 43.5952,48.5787 45.5,50C 48.5314,50.4954 51.5314,50.3287 54.5,49.5C 54.3893,50.1174 54.056,50.6174 53.5,51C 51.1667,51.3333 48.8333,51.6667 46.5,52C 49.4554,54.3984 49.1221,55.8984 45.5,56.5C 46.3739,53.769 45.3739,51.6024 42.5,50C 39.6492,48.7114 36.6492,48.2114 33.5,48.5C 35.5,47.8333 37.5,47.1667 39.5,46.5 Z"/></g>
<g><path style="opacity:1" fill="#233511" d="M 236.5,42.5 C 237.793,43.842 238.626,45.5087 239,47.5C 239.383,46.944 239.883,46.6107 240.5,46.5C 238.856,49.0045 237.356,51.6711 236,54.5C 235.51,55.7932 235.343,57.1266 235.5,58.5C 234.732,57.7375 234.232,56.7375 234,55.5C 233.329,56.2524 232.496,56.5858 231.5,56.5C 232.793,54.7041 234.293,53.0375 236,51.5C 236.498,48.5184 236.665,45.5184 236.5,42.5 Z"/></g>
<g><path style="opacity:1" fill="#2e3a10" d="M 244.5,47.5 C 245.586,47.62 246.253,48.2867 246.5,49.5C 246.915,51.9091 247.582,54.2424 248.5,56.5C 249.5,55.8333 250.5,55.1667 251.5,54.5C 252.298,54.9569 252.631,55.6236 252.5,56.5C 249.833,57.5 247.167,58.5 244.5,59.5C 245.766,55.4677 245.766,51.4677 244.5,47.5 Z"/></g>
<g><path style="opacity:1" fill="#edbe0e" d="M 252.5,56.5 C 252.5,58.8333 252.5,61.1667 252.5,63.5C 251.31,65.8693 249.643,67.8693 247.5,69.5C 245.007,70.7736 242.341,71.4403 239.5,71.5C 239.337,69.1432 239.503,66.8098 240,64.5C 241.707,62.9625 243.207,61.2959 244.5,59.5C 247.167,58.5 249.833,57.5 252.5,56.5 Z"/></g>
<g><path style="opacity:1" fill="#151402" d="M 40.5,58.5 C 40.5,59.1667 40.5,59.8333 40.5,60.5C 36.7139,59.3047 36.7139,58.638 40.5,58.5 Z"/></g>
<g><path style="opacity:1" fill="#ecbd0e" d="M 33.5,48.5 C 36.6492,48.2114 39.6492,48.7114 42.5,50C 45.3739,51.6024 46.3739,53.769 45.5,56.5C 43.7162,56.8925 42.0495,57.5592 40.5,58.5C 36.7139,58.638 36.7139,59.3047 40.5,60.5C 41.0431,60.56 41.3764,60.8933 41.5,61.5C 40.5329,63.7901 39.1996,65.7901 37.5,67.5C 32.8499,68.7195 28.1833,68.7195 23.5,67.5C 24.1272,66.5832 24.4606,65.5832 24.5,64.5C 27.4015,60.5452 31.4015,58.3785 36.5,58C 33.4911,56.4956 30.4911,54.9956 27.5,53.5C 29.5193,51.8103 31.5193,50.1436 33.5,48.5 Z"/></g>
<g><path style="opacity:1" fill="#37380f" d="M 235.5,59.5 C 236.479,60.7653 237.479,62.0986 238.5,63.5C 240.264,61.7224 242.264,60.3891 244.5,59.5C 243.207,61.2959 241.707,62.9625 240,64.5C 239.503,66.8098 239.337,69.1432 239.5,71.5C 242.341,71.4403 245.007,70.7736 247.5,69.5C 248.209,70.404 249.209,70.7373 250.5,70.5C 247.199,71.2842 243.866,72.2842 240.5,73.5C 238.826,68.7847 237.159,64.118 235.5,59.5 Z"/></g>
<g><path style="opacity:1" fill="#cab25a" d="M 123.5,53.5 C 160.806,51.1043 194.472,60.9376 224.5,83C 226.439,83.9078 227.439,85.4078 227.5,87.5C 221.936,87.024 216.436,86.3573 211,85.5C 212.542,91.2776 214.709,96.9443 217.5,102.5C 217.167,102.833 216.833,103.167 216.5,103.5C 164.562,66.2838 112.728,66.2838 61,103.5C 60.5,103.167 60,102.833 59.5,102.5C 61.8333,97.1667 64.1667,91.8333 66.5,86.5C 66.1667,86.1667 65.8333,85.8333 65.5,85.5C 60.6978,86.2556 55.8644,86.9223 51,87.5C 48.7586,87.3199 48.2586,86.4865 49.5,85C 71.6217,68.3537 96.2884,57.8537 123.5,53.5 Z"/></g>
<g><path style="opacity:1" fill="#f4f3f1" d="M 125.5,54.5 C 162.13,53.1002 195.13,63.2668 224.5,85C 219.162,85.3151 213.828,85.1484 208.5,84.5C 210.665,89.8052 212.498,95.1385 214,100.5C 169.614,69.0477 123.447,66.2143 75.5,92C 71.2467,94.7097 67.0801,97.543 63,100.5C 64.206,95.3926 66.0393,90.3926 68.5,85.5C 63.8685,84.6717 59.2018,84.1717 54.5,84C 75.7287,68.2042 99.3953,58.3709 125.5,54.5 Z"/></g>
<g><path style="opacity:1" fill="#252525" d="M 128.5,61.5 C 130.701,61.8584 132.035,63.1917 132.5,65.5C 130.704,66.1414 129.204,67.1414 128,68.5C 127.982,66.2028 128.149,63.8695 128.5,61.5 Z"/></g>
<g><path style="opacity:1" fill="#262626" d="M 103.5,65.5 C 105.167,65.5 106.833,65.5 108.5,65.5C 108.178,67.7224 108.845,69.5557 110.5,71C 108.893,70.9813 107.226,70.8146 105.5,70.5C 105.649,71.552 105.483,72.552 105,73.5C 103.921,70.9373 103.421,68.2706 103.5,65.5 Z"/></g>
<g><path style="opacity:1" fill="#dddddd" d="M 104.5,66.5 C 105.675,66.281 106.675,66.6143 107.5,67.5C 105.948,68.7979 104.948,68.4646 104.5,66.5 Z"/></g>
<g><path style="opacity:1" fill="#272727" d="M 120.5,61.5 C 122.527,61.3379 124.527,61.5045 126.5,62C 124.901,63.7863 124.067,65.953 124,68.5C 123.506,66.8659 123.34,65.1992 123.5,63.5C 121.821,63.7148 120.821,63.0481 120.5,61.5 Z"/></g>
<g><path style="opacity:1" fill="#2b2b2b" d="M 117.5,62.5 C 118.693,62.9704 119.36,63.9704 119.5,65.5C 119.333,66.5 119.167,67.5 119,68.5C 118.187,66.5643 117.687,64.5643 117.5,62.5 Z"/></g>
<g><path style="opacity:1" fill="#3a3a3a" d="M 149.5,61.5 C 152.797,61.3287 153.131,61.9954 150.5,63.5C 154.127,65.4641 154.293,67.4641 151,69.5C 149.566,69.0696 148.399,68.2362 147.5,67C 152.984,68.1025 153.484,67.2692 149,64.5C 148.53,63.4232 148.697,62.4232 149.5,61.5 Z"/></g>
<g><path style="opacity:1" fill="#444444" d="M 135.5,60.5 C 141.176,60.9475 141.509,61.7808 136.5,63C 139.706,63.6247 140.706,65.2914 139.5,68C 138.056,68.7805 136.723,68.6139 135.5,67.5C 136.397,67.3309 137.397,66.9976 138.5,66.5C 135.479,65.2274 134.479,63.2274 135.5,60.5 Z"/></g>
<g><path style="opacity:1" fill="#3b3b3b" d="M 111.5,63.5 C 116.041,63.3309 116.374,63.9975 112.5,65.5C 113.991,66.2436 115.491,66.9103 117,67.5C 116.66,71.3956 114.827,72.2289 111.5,70C 116.573,68.8838 116.406,67.7171 111,66.5C 110.53,65.4232 110.697,64.4232 111.5,63.5 Z"/></g>
<g><path style="opacity:1" fill="#0d451b" d="M 252.5,63.5 C 252.998,66.0103 253.664,68.5103 254.5,71C 254.607,73.2206 253.94,75.0539 252.5,76.5C 252.62,74.8014 252.954,73.1347 253.5,71.5C 253.124,69.1966 252.124,68.8632 250.5,70.5C 249.209,70.7373 248.209,70.404 247.5,69.5C 249.643,67.8693 251.31,65.8693 252.5,63.5 Z"/></g>
<g><path style="opacity:1" fill="#101506" d="M 24.5,64.5 C 24.4606,65.5832 24.1272,66.5832 23.5,67.5C 28.1833,68.7195 32.8499,68.7195 37.5,67.5C 38.8333,68.1667 40.1667,68.8333 41.5,69.5C 38.0977,69.3424 34.7644,69.6758 31.5,70.5C 28.7131,69.5233 25.7131,69.19 22.5,69.5C 22.1201,67.302 22.7868,65.6354 24.5,64.5 Z"/></g>
<g><path style="opacity:1" fill="#343434" d="M 97.5,67.5 C 98.552,67.3505 99.552,67.5172 100.5,68C 96.4884,69.8033 96.8218,70.8033 101.5,71C 97.7351,72.3772 98.0684,73.3772 102.5,74C 100.975,75.0086 99.3084,75.5086 97.5,75.5C 96.4696,72.7705 96.4696,70.1038 97.5,67.5 Z"/></g>
<g><path style="opacity:1" fill="#414141" d="M 155.5,62.5 C 157.786,63.3402 158.119,64.8402 156.5,67C 157.212,68.442 158.379,69.2753 160,69.5C 161.82,68.3961 163.32,66.8961 164.5,65C 165.448,64.5172 166.448,64.3505 167.5,64.5C 167.664,67.1873 167.497,69.854 167,72.5C 166.653,70.8198 165.653,69.8198 164,69.5C 161.23,70.3479 158.397,70.6813 155.5,70.5C 155.5,67.8333 155.5,65.1667 155.5,62.5 Z"/></g>
<g><path style="opacity:1" fill="#efc00f" d="M 41.5,69.5 C 40.7241,73.0525 39.3908,76.3858 37.5,79.5C 34.0554,80.1489 30.8887,81.4823 28,83.5C 27.5026,80.854 27.3359,78.1873 27.5,75.5C 28.803,73.8577 30.1363,72.1911 31.5,70.5C 34.7644,69.6758 38.0977,69.3424 41.5,69.5 Z"/></g>
<g><path style="opacity:1" fill="#363636" d="M 170.5,65.5 C 172.117,66.5893 172.95,68.256 173,70.5C 173.906,68.388 175.406,67.5547 177.5,68C 176.914,70.2798 176.08,72.4465 175,74.5C 174.779,71.0569 173.779,70.7236 172,73.5C 171.667,72.1667 171.333,70.8333 171,69.5C 170.751,70.624 170.251,71.624 169.5,72.5C 169.167,72.1667 168.833,71.8333 168.5,71.5C 169.372,69.5504 170.039,67.5504 170.5,65.5 Z"/></g>
<g><path style="opacity:1" fill="#505050" d="M 182.5,69.5 C 184.903,69.695 186.57,70.8616 187.5,73C 186.258,74.6512 185.424,76.4845 185,78.5C 184.077,77.2412 183.243,75.9079 182.5,74.5C 181.742,75.8114 180.742,76.3114 179.5,76C 180.406,73.7787 181.406,71.6121 182.5,69.5 Z"/></g>
<g><path style="opacity:1" fill="#ebbc0e" d="M 252.5,76.5 C 251.094,76.9731 250.427,77.9731 250.5,79.5C 247.554,81.6315 244.221,82.6315 240.5,82.5C 239.13,82.1435 238.13,81.3102 237.5,80C 238.377,77.7473 239.377,75.5806 240.5,73.5C 243.866,72.2842 247.199,71.2842 250.5,70.5C 252.124,68.8632 253.124,69.1966 253.5,71.5C 252.954,73.1347 252.62,74.8014 252.5,76.5 Z"/></g>
<g><path style="opacity:1" fill="#303030" d="M 93.5,69.5 C 94.8003,72.0241 94.8003,74.6908 93.5,77.5C 91.9596,75.6132 90.2929,73.7799 88.5,72C 90.3867,71.8374 91.8867,72.6707 93,74.5C 93.4935,72.8659 93.6602,71.1992 93.5,69.5 Z"/></g>
<g><path style="opacity:1" fill="#323232" d="M 189.5,72.5 C 190.043,72.56 190.376,72.8933 190.5,73.5C 189.877,75.7105 188.877,77.7105 187.5,79.5C 187.167,79.3333 186.833,79.1667 186.5,79C 187.793,76.9481 188.793,74.7814 189.5,72.5 Z"/></g>
<g><path style="opacity:1" fill="#303030" d="M 86.5,72.5 C 88.4619,74.425 89.2952,76.7583 89,79.5C 87.5886,77.3496 86.7553,75.0163 86.5,72.5 Z"/></g>
<g><path style="opacity:1" fill="#373737" d="M 78.5,81.5 C 77.1634,80.6851 76.1634,79.5185 75.5,78C 77.4784,78.033 78.4784,79.1996 78.5,81.5 Z"/></g>
<g><path style="opacity:1" fill="#2f2f2f" d="M 83.5,74.5 C 85.9216,75.9923 86.5883,77.9923 85.5,80.5C 83.4816,79.1865 82.3149,79.8532 82,82.5C 80.0496,80.451 79.7162,78.451 81,76.5C 84.3823,79.4286 85.2156,78.7619 83.5,74.5 Z"/></g>
<g><path style="opacity:1" fill="#252525" d="M 198.5,84.5 C 197.206,81.9809 197.706,79.6475 200,77.5C 199.563,79.7567 199.063,82.09 198.5,84.5 Z"/></g>
<g><path style="opacity:1" fill="#4d4d4d" d="M 193.5,74.5 C 194.748,75.3339 195.415,76.6672 195.5,78.5C 195.333,79.8333 195.167,81.1667 195,82.5C 193.651,80.0657 191.818,79.2324 189.5,80C 191.464,78.549 192.797,76.7157 193.5,74.5 Z"/></g>
<g><path style="opacity:1" fill="#283b12" d="M 27.5,75.5 C 27.3359,78.1873 27.5026,80.854 28,83.5C 30.8887,81.4823 34.0554,80.1489 37.5,79.5C 39.3432,80.2829 41.3432,80.9495 43.5,81.5C 44.7879,83.2985 44.7879,84.9652 43.5,86.5C 43.5,85.1667 43.5,83.8333 43.5,82.5C 39.0088,81.8851 35.0088,82.8851 31.5,85.5C 30.4643,83.3123 28.9643,83.3123 27,85.5C 26.1925,81.9733 26.3592,78.6399 27.5,75.5 Z"/></g>
<g><path style="opacity:1" fill="#f2c10f" d="M 43.5,86.5 C 42.2632,87.9649 41.2632,89.6316 40.5,91.5C 36.9627,92.2667 33.6293,93.6001 30.5,95.5C 29.5344,93.604 29.2011,91.604 29.5,89.5C 30.1667,88.1667 30.8333,86.8333 31.5,85.5C 35.0088,82.8851 39.0088,81.8851 43.5,82.5C 43.5,83.8333 43.5,85.1667 43.5,86.5 Z"/></g>
<g><path style="opacity:1" fill="#323232" d="M 198.5,84.5 C 199.675,84.719 200.675,84.3857 201.5,83.5C 202.083,81.9984 202.916,80.6651 204,79.5C 204.624,81.4645 204.124,83.1311 202.5,84.5C 201.042,85.782 199.708,85.782 198.5,84.5 Z"/></g>
<g><path style="opacity:1" fill="#16290e" d="M 250.5,79.5 C 251.742,81.6112 251.742,83.6112 250.5,85.5C 250.719,84.325 250.386,83.325 249.5,82.5C 246.667,83.9332 243.667,84.5999 240.5,84.5C 240.5,83.8333 240.5,83.1667 240.5,82.5C 244.221,82.6315 247.554,81.6315 250.5,79.5 Z"/></g>
<g><path style="opacity:1" fill="#efc00f" d="M 250.5,85.5 C 249.463,86.9303 248.796,88.597 248.5,90.5C 244.582,94.0628 239.915,95.3961 234.5,94.5C 234.469,89.8868 236.469,86.5535 240.5,84.5C 243.667,84.5999 246.667,83.9332 249.5,82.5C 250.386,83.325 250.719,84.325 250.5,85.5 Z"/></g>
<g><path style="opacity:1" fill="#2c2c2c" d="M 78.5,81.5 C 79.8348,84.9936 78.5015,86.1603 74.5,85C 73.2351,83.6626 72.7351,82.1626 73,80.5C 73.941,82.0614 75.1076,83.3947 76.5,84.5C 77.9185,83.9953 78.5852,82.9953 78.5,81.5 Z"/></g>
<g><path style="opacity:1" fill="#c6b24a" d="M 99.5,90.5 C 99.631,89.7611 99.4643,89.0944 99,88.5C 98.3292,89.2524 97.4959,89.5858 96.5,89.5C 97.6653,87.5839 99.332,86.7506 101.5,87C 100.915,88.3024 100.249,89.469 99.5,90.5 Z"/></g>
<g><path style="opacity:1" fill="#79933e" d="M 112.5,88.5 C 115.976,87.3567 119.642,87.1901 123.5,88C 124.056,88.3826 124.389,88.8826 124.5,89.5C 120.519,88.9791 116.519,88.6458 112.5,88.5 Z"/></g>
<g><path style="opacity:1" fill="#f2ed22" d="M 99.5,90.5 C 99.8064,93.3854 99.4731,96.0521 98.5,98.5C 97.2206,100.123 95.8872,101.79 94.5,103.5C 93.4826,100.972 92.3159,100.972 91,103.5C 90.5026,100.854 90.3359,98.1873 90.5,95.5C 91.5,92.5 93.5,90.5 96.5,89.5C 97.4959,89.5858 98.3292,89.2524 99,88.5C 99.4643,89.0944 99.631,89.7611 99.5,90.5 Z"/></g>
<g><path style="opacity:1" fill="#f3ee21" d="M 112.5,88.5 C 116.519,88.6458 120.519,88.9791 124.5,89.5C 126.379,89.3932 126.712,89.8932 125.5,91C 122.499,90.9056 120.499,92.2389 119.5,95C 118.255,95.7914 116.922,96.2914 115.5,96.5C 113.801,96.6602 112.134,96.4935 110.5,96C 110.833,95.6667 111.167,95.3333 111.5,95C 110.167,94.6667 108.833,94.3333 107.5,94C 108.252,93.3292 108.586,92.4959 108.5,91.5C 109.262,89.7376 110.596,88.7376 112.5,88.5 Z"/></g>
<g><path style="opacity:1" fill="#252825" d="M 138.5,91.5 C 137.778,91.0825 137.278,90.4158 137,89.5C 136.823,93.3563 136.323,97.023 135.5,100.5C 135.334,94.4908 135.501,88.4908 136,82.5C 136.849,85.5214 137.683,88.5214 138.5,91.5 Z"/></g>
<g><path style="opacity:1" fill="#eeeeee" d="M 194.5,92.5 C 194.5,93.8333 194.5,95.1667 194.5,96.5C 191.476,98.3102 188.142,99.4769 184.5,100C 182.202,103.037 179.202,104.871 175.5,105.5C 173.727,104.686 173.227,103.352 174,101.5C 175.011,100.663 176.178,100.33 177.5,100.5C 176.559,92.6364 179.893,90.3031 187.5,93.5C 189.729,91.447 192.062,91.1137 194.5,92.5 Z"/></g>
<g><path style="opacity:1" fill="#233813" d="M 29.5,89.5 C 29.2011,91.604 29.5344,93.604 30.5,95.5C 33.6293,93.6001 36.9627,92.2667 40.5,91.5C 41.9187,92.4511 43.5853,92.7845 45.5,92.5C 45.7947,94.7354 45.4614,96.7354 44.5,98.5C 44.5,96.8333 44.5,95.1667 44.5,93.5C 39.055,93.1992 34.7217,95.1992 31.5,99.5C 31.1788,97.9519 30.1788,97.2852 28.5,97.5C 28.1936,94.6146 28.5269,91.9479 29.5,89.5 Z"/></g>
<g><path style="opacity:1" fill="#e9ba0e" d="M 44.5,98.5 C 44.5,98.8333 44.5,99.1667 44.5,99.5C 41.2343,103.568 37.0676,106.568 32,108.5C 31.6174,107.944 31.1174,107.611 30.5,107.5C 30.5751,104.794 30.9084,102.127 31.5,99.5C 34.7217,95.1992 39.055,93.1992 44.5,93.5C 44.5,95.1667 44.5,96.8333 44.5,98.5 Z"/></g>
<g><path style="opacity:1" fill="#a2a0a1" d="M 138.5,91.5 C 140.04,93.8383 140.706,96.5049 140.5,99.5C 141.024,108.99 141.691,118.324 142.5,127.5C 143.054,130.746 144.054,133.746 145.5,136.5C 145.5,137.5 145.5,138.5 145.5,139.5C 147.527,139.338 149.527,139.505 151.5,140C 149.618,140.198 147.952,140.698 146.5,141.5C 145.903,141.735 145.57,142.235 145.5,143C 146.11,149.311 146.776,155.477 147.5,161.5C 147.5,161.833 147.5,162.167 147.5,162.5C 146.453,168.625 147.119,174.625 149.5,180.5C 150.407,191.469 150.74,202.469 150.5,213.5C 148.5,213.5 146.5,213.5 144.5,213.5C 143.146,204.131 143.479,194.798 145.5,185.5C 143.13,174.978 141.963,164.311 142,153.5C 141.007,156.408 140.507,159.408 140.5,162.5C 141.175,170.563 142.175,178.563 143.5,186.5C 142.384,195.664 142.384,204.664 143.5,213.5C 137.651,214.664 131.651,214.664 125.5,213.5C 125.963,210.518 126.296,207.518 126.5,204.5C 126.69,201.145 127.69,198.145 129.5,195.5C 130.486,191.03 130.819,186.363 130.5,181.5C 128.658,172.286 129.325,163.286 132.5,154.5C 132.457,153.584 132.124,152.917 131.5,152.5C 131.5,152.167 131.5,151.833 131.5,151.5C 132.794,149.952 133.461,147.952 133.5,145.5C 133.495,143.304 133.162,141.304 132.5,139.5C 132.5,138.833 132.5,138.167 132.5,137.5C 130.842,127.713 131.175,118.046 133.5,108.5C 134.167,105.833 134.833,103.167 135.5,100.5C 136.323,97.023 136.823,93.3563 137,89.5C 137.278,90.4158 137.778,91.0825 138.5,91.5 Z"/></g>
<g><path style="opacity:1" fill="#f0c00f" d="M 231.5,103.5 C 233.192,101.795 234.525,99.7952 235.5,97.5C 239.122,96.3749 242.789,95.3749 246.5,94.5C 247.385,101.47 244.218,105.47 237,106.5C 234.258,106.884 232.425,105.884 231.5,103.5 Z"/></g>
<g><path style="opacity:1" fill="#0c6229" d="M 194.5,92.5 C 195.103,94.1897 196.103,95.6897 197.5,97C 196.056,98.126 195.39,99.626 195.5,101.5C 196.347,105.886 197.347,110.22 198.5,114.5C 196.142,114.253 194.142,114.919 192.5,116.5C 187.677,111.948 182.01,110.114 175.5,111C 174.248,109.172 174.248,107.339 175.5,105.5C 179.202,104.871 182.202,103.037 184.5,100C 188.142,99.4769 191.476,98.3102 194.5,96.5C 194.5,95.1667 194.5,93.8333 194.5,92.5 Z"/></g>
<g><path style="opacity:1" fill="#fbf90d" d="M 78.5,114.5 C 78.2941,110.102 78.6274,105.768 79.5,101.5C 79.7376,99.5956 80.7376,98.2623 82.5,97.5C 83.1174,97.3893 83.6174,97.056 84,96.5C 85.7961,102.612 85.7961,108.612 84,114.5C 82.9399,109.603 81.7732,109.937 80.5,115.5C 79.8165,115.137 79.1499,114.804 78.5,114.5 Z"/></g>
<g><path style="opacity:1" fill="#b3ab47" d="M 108.5,91.5 C 108.586,92.4959 108.252,93.3292 107.5,94C 108.833,94.3333 110.167,94.6667 111.5,95C 111.167,95.3333 110.833,95.6667 110.5,96C 112.134,96.4935 113.801,96.6602 115.5,96.5C 112.023,97.3227 108.356,97.8227 104.5,98C 102.34,98.9959 100.673,100.496 99.5,102.5C 96.6024,104.773 96.9358,106.273 100.5,107C 95.4674,108.802 95.4674,109.969 100.5,110.5C 102.634,110.485 104.634,109.985 106.5,109C 108.037,107.293 109.704,105.793 111.5,104.5C 110.409,107.428 108.409,109.594 105.5,111C 100.475,111.328 95.4754,111.328 90.5,111C 87.9204,114.158 85.5871,117.492 83.5,121C 84,121.167 84.5,121.333 85,121.5C 86.7574,119.235 88.9241,117.569 91.5,116.5C 91.0472,117.458 90.3805,118.292 89.5,119C 90.1667,119.333 90.8333,119.667 91.5,120C 87.288,122.222 87.6213,123.389 92.5,123.5C 94.6341,123.485 96.6341,122.985 98.5,122C 100.037,120.293 101.704,118.793 103.5,117.5C 102.409,120.428 100.409,122.594 97.5,124C 92.0736,124.079 86.7403,124.246 81.5,124.5C 81.6315,120.779 80.6315,117.446 78.5,114.5C 79.1499,114.804 79.8165,115.137 80.5,115.5C 81.7732,109.937 82.9399,109.603 84,114.5C 85.7961,108.612 85.7961,102.612 84,96.5C 83.6174,97.056 83.1174,97.3893 82.5,97.5C 82.6854,95.8042 83.5187,94.4709 85,93.5C 85.8709,99.5211 86.8709,105.521 88,111.5C 89.7434,107.829 89.9101,103.996 88.5,100C 88.5247,98.124 89.1914,96.624 90.5,95.5C 90.3359,98.1873 90.5026,100.854 91,103.5C 92.3159,100.972 93.4826,100.972 94.5,103.5C 95.8872,101.79 97.2206,100.123 98.5,98.5C 98.369,99.2389 98.5357,99.9056 99,100.5C 102.694,97.9709 105.86,94.9709 108.5,91.5 Z"/></g>
<g><path style="opacity:1" fill="#beb146" d="M 111.5,104.5 C 108.663,102.598 105.329,101.931 101.5,102.5C 105.182,101.739 109.015,101.072 113,100.5C 114.585,102.201 114.085,103.535 111.5,104.5 Z"/></g>
<g><path style="opacity:1" fill="#243711" d="M 44.5,99.5 C 44.2488,101.17 43.5822,102.67 42.5,104C 44.2182,104.346 45.8849,104.846 47.5,105.5C 48.7759,106.614 48.7759,107.614 47.5,108.5C 46.4855,107.235 44.9855,106.569 43,106.5C 41.5,106.667 40,106.833 38.5,107C 36.9625,108.707 35.2959,110.207 33.5,111.5C 32.0008,111.04 31.0008,109.707 30.5,107.5C 31.1174,107.611 31.6174,107.944 32,108.5C 37.0676,106.568 41.2343,103.568 44.5,99.5 Z"/></g>
<g><path style="opacity:1" fill="#faf710" d="M 99.5,102.5 C 100.167,102.5 100.833,102.5 101.5,102.5C 105.329,101.931 108.663,102.598 111.5,104.5C 109.704,105.793 108.037,107.293 106.5,109C 104.634,109.985 102.634,110.485 100.5,110.5C 95.4674,109.969 95.4674,108.802 100.5,107C 96.9358,106.273 96.6024,104.773 99.5,102.5 Z"/></g>
<g><path style="opacity:1" fill="#f3c20f" d="M 47.5,108.5 C 45.3976,114.589 41.0643,118.256 34.5,119.5C 33.5258,117.257 33.1924,114.924 33.5,112.5C 33.5,112.167 33.5,111.833 33.5,111.5C 35.2959,110.207 36.9625,108.707 38.5,107C 40,106.833 41.5,106.667 43,106.5C 44.9855,106.569 46.4855,107.235 47.5,108.5 Z"/></g>
<g><path style="opacity:1" fill="#ecbd0e" d="M 232.5,119.5 C 231.909,118.849 231.243,118.182 230.5,117.5C 231.78,113.917 233.78,110.917 236.5,108.5C 239.574,108.127 242.574,107.461 245.5,106.5C 245.5,115.167 241.167,119.5 232.5,119.5 Z"/></g>
<g><path style="opacity:1" fill="#d6ca3c" d="M 79.5,101.5 C 78.6274,105.768 78.2941,110.102 78.5,114.5C 76.034,110.752 75.8673,106.752 78,102.5C 78.3826,101.944 78.8826,101.611 79.5,101.5 Z"/></g>
<g><path style="opacity:1" fill="#1a221b" d="M 140.5,99.5 C 141.29,100.609 141.79,101.942 142,103.5C 142.5,111.493 142.666,119.493 142.5,127.5C 141.691,118.324 141.024,108.99 140.5,99.5 Z"/></g>
<g><path style="opacity:1" fill="#28300e" d="M 248.5,90.5 C 248.665,93.5184 248.498,96.5184 248,99.5C 247.727,101.329 246.893,102.829 245.5,104C 245.868,110.633 245.868,116.799 245.5,122.5C 245.5,121.167 245.5,119.833 245.5,118.5C 241.777,119.297 238.11,120.297 234.5,121.5C 233.833,120.833 233.167,120.167 232.5,119.5C 241.167,119.5 245.5,115.167 245.5,106.5C 242.574,107.461 239.574,108.127 236.5,108.5C 235.003,107.694 233.336,107.028 231.5,106.5C 230.224,105.386 230.224,104.386 231.5,103.5C 232.425,105.884 234.258,106.884 237,106.5C 244.218,105.47 247.385,101.47 246.5,94.5C 242.789,95.3749 239.122,96.3749 235.5,97.5C 235.611,96.8826 235.944,96.3826 236.5,96C 235.584,95.7216 234.918,95.2216 234.5,94.5C 239.915,95.3961 244.582,94.0628 248.5,90.5 Z"/></g>
<g><path style="opacity:1" fill="#cab846" d="M 103.5,117.5 C 102.666,116.252 101.333,115.585 99.5,115.5C 96.8236,115.837 94.157,116.17 91.5,116.5C 91.9175,115.778 92.5842,115.278 93.5,115C 97.8745,114.461 102.208,114.128 106.5,114C 105.837,115.518 104.837,116.685 103.5,117.5 Z"/></g>
<g><path style="opacity:1" fill="#f1f1f1" d="M 198.5,114.5 C 201.871,116.737 205.537,118.071 209.5,118.5C 209.5,120.167 209.5,121.833 209.5,123.5C 207.901,123.232 206.568,123.566 205.5,124.5C 200,125.558 194.333,126.558 188.5,127.5C 186.478,123.225 187.812,120.892 192.5,120.5C 192.5,119.167 192.5,117.833 192.5,116.5C 194.142,114.919 196.142,114.253 198.5,114.5 Z"/></g>
<g><path style="opacity:1" fill="#2c3811" d="M 47.5,108.5 C 47.747,111.505 46.747,114.005 44.5,116C 46.0249,117.009 47.6916,117.509 49.5,117.5C 49.7373,118.791 49.404,119.791 48.5,120.5C 42.6651,117.021 37.9985,118.355 34.5,124.5C 33.078,122.048 32.078,119.381 31.5,116.5C 31.3402,114.645 32.0069,113.312 33.5,112.5C 33.1924,114.924 33.5258,117.257 34.5,119.5C 41.0643,118.256 45.3976,114.589 47.5,108.5 Z"/></g>
<g><path style="opacity:1" fill="#fbf90c" d="M 103.5,117.5 C 101.704,118.793 100.037,120.293 98.5,122C 96.6341,122.985 94.6341,123.485 92.5,123.5C 87.6213,123.389 87.288,122.222 91.5,120C 90.8333,119.667 90.1667,119.333 89.5,119C 90.3805,118.292 91.0472,117.458 91.5,116.5C 94.157,116.17 96.8236,115.837 99.5,115.5C 101.333,115.585 102.666,116.252 103.5,117.5 Z"/></g>
<g><path style="opacity:1" fill="#faf713" d="M 74.5,117.5 C 76.0075,119.181 77.0075,121.181 77.5,123.5C 77.6488,126.607 77.1488,129.607 76,132.5C 75.7104,130.956 75.0437,129.623 74,128.5C 73.6667,130.5 73.3333,132.5 73,134.5C 72.2917,133.619 71.4584,132.953 70.5,132.5C 68.6691,126.795 69.3358,121.461 72.5,116.5C 73.1835,116.863 73.8501,117.196 74.5,117.5 Z"/></g>
<g><path style="opacity:1" fill="#f2c20f" d="M 48.5,120.5 C 47.6214,123.701 45.9547,126.368 43.5,128.5C 40.525,128.713 37.8584,129.713 35.5,131.5C 34.5258,129.257 34.1924,126.924 34.5,124.5C 37.9985,118.355 42.6651,117.021 48.5,120.5 Z"/></g>
<g><path style="opacity:1" fill="#4c554d" d="M 133.5,108.5 C 131.175,118.046 130.842,127.713 132.5,137.5C 131.833,137.5 131.5,137.167 131.5,136.5C 130.431,128.535 130.264,120.535 131,112.5C 131.608,110.934 132.442,109.6 133.5,108.5 Z"/></g>
<g><path style="opacity:1" fill="#4c4b4c" d="M 135.5,113.5 C 137.439,121.436 138.606,129.769 139,138.5C 139.667,144.167 139.667,149.833 139,155.5C 137.807,141.492 136.64,127.492 135.5,113.5 Z"/></g>
<g><path style="opacity:1" fill="#e9bb0e" d="M 245.5,122.5 C 244.42,124.996 243.086,127.33 241.5,129.5C 238.08,131.222 234.414,131.889 230.5,131.5C 230.186,127.468 231.519,124.135 234.5,121.5C 238.11,120.297 241.777,119.297 245.5,118.5C 245.5,119.833 245.5,121.167 245.5,122.5 Z"/></g>
<g><path style="opacity:1" fill="#dbe909" d="M 110.5,119.5 C 114.018,120.966 114.185,122.633 111,124.5C 109.831,123.991 108.998,123.158 108.5,122C 109.756,121.583 110.423,120.75 110.5,119.5 Z"/></g>
<g><path style="opacity:1" fill="#103b1d" d="M 209.5,118.5 C 210.074,120.788 211.074,122.955 212.5,125C 211.627,126.045 210.627,126.878 209.5,127.5C 209.414,126.504 209.748,125.671 210.5,125C 208.866,124.506 207.199,124.34 205.5,124.5C 206.568,123.566 207.901,123.232 209.5,123.5C 209.5,121.833 209.5,120.167 209.5,118.5 Z"/></g>
<g><path style="opacity:1" fill="#d8cd3a" d="M 74.5,117.5 C 73.8501,117.196 73.1835,116.863 72.5,116.5C 69.3358,121.461 68.6691,126.795 70.5,132.5C 69.0337,131.653 68.2004,130.32 68,128.5C 67.1341,121.932 68.9675,116.265 73.5,111.5C 74.4656,113.396 74.7989,115.396 74.5,117.5 Z"/></g>
<g><path style="opacity:1" fill="#12642c" d="M 205.5,124.5 C 207.199,124.34 208.866,124.506 210.5,125C 209.748,125.671 209.414,126.504 209.5,127.5C 208.8,131.798 208.467,136.131 208.5,140.5C 203.905,138.298 201.239,139.631 200.5,144.5C 198.5,144.5 196.5,144.5 194.5,144.5C 196.042,143.837 197.709,143.17 199.5,142.5C 197.5,138.5 194.5,135.5 190.5,133.5C 189.833,133.833 189.167,134.167 188.5,134.5C 187.637,132.229 187.637,129.895 188.5,127.5C 194.333,126.558 200,125.558 205.5,124.5 Z"/></g>
<g><path style="opacity:1" fill="#bbd517" d="M 119.5,133.5 C 118.833,133.5 118.5,133.167 118.5,132.5C 116.218,128.909 112.884,127.576 108.5,128.5C 110.151,127.03 111.985,125.697 114,124.5C 114.787,120.277 112.953,118.111 108.5,118C 112.634,116.066 115.301,117.399 116.5,122C 116.3,124.537 114.967,126.204 112.5,127C 116.641,127.31 118.975,129.477 119.5,133.5 Z"/></g>
<g><path style="opacity:1" fill="#b8aa4a" d="M 96.5,129.5 C 95.791,128.596 94.791,128.263 93.5,128.5C 94.7985,126.901 96.4652,126.401 98.5,127C 97.9341,127.995 97.2674,128.828 96.5,129.5 Z"/></g>
<g><path style="opacity:1" fill="#0c742d" d="M 108.5,128.5 C 112.884,127.576 116.218,128.909 118.5,132.5C 114.5,132.5 110.5,132.5 106.5,132.5C 106.733,130.938 107.4,129.605 108.5,128.5 Z"/></g>
<g><path style="opacity:1" fill="#f1ea25" d="M 93.5,128.5 C 94.791,128.263 95.791,128.596 96.5,129.5C 95.8964,132.218 94.563,134.551 92.5,136.5C 90.6316,137.263 88.9649,138.263 87.5,139.5C 81.8067,140.384 80.8067,139.218 84.5,136C 83.5509,135.383 82.7175,135.549 82,136.5C 81.5357,135.906 81.369,135.239 81.5,134.5C 84.3787,130.42 88.3787,128.42 93.5,128.5 Z"/></g>
<g><path style="opacity:1" fill="#b5aa48" d="M 67.5,133.5 C 66.2101,132.942 65.3768,131.942 65,130.5C 64.6174,131.056 64.1174,131.389 63.5,131.5C 63.238,130.022 63.5713,128.689 64.5,127.5C 66.0383,129.243 67.0383,131.243 67.5,133.5 Z"/></g>
<g><path style="opacity:1" fill="#213c14" d="M 34.5,124.5 C 34.1924,126.924 34.5258,129.257 35.5,131.5C 37.8584,129.713 40.525,128.713 43.5,128.5C 45.5,129.167 47.5,129.833 49.5,130.5C 43.3606,129.354 38.6939,131.354 35.5,136.5C 34.632,134.103 33.9653,131.603 33.5,129C 33.5085,127.293 33.8418,125.793 34.5,124.5 Z"/></g>
<g><path style="opacity:1" fill="#edbe0e" d="M 49.5,130.5 C 49.8144,134.532 48.4811,137.865 45.5,140.5C 42.357,141.037 39.357,142.037 36.5,143.5C 35.5258,141.257 35.1924,138.924 35.5,136.5C 38.6939,131.354 43.3606,129.354 49.5,130.5 Z"/></g>
<g><path style="opacity:1" fill="#f7f31a" d="M 67.5,133.5 C 69.9501,135.629 71.6167,138.296 72.5,141.5C 72.7989,143.604 72.4656,145.604 71.5,147.5C 70.8076,146.975 70.3076,146.308 70,145.5C 69.8784,147.437 69.045,148.77 67.5,149.5C 66.0837,147.821 64.7503,146.154 63.5,144.5C 63.5,140.5 63.5,136.5 63.5,132.5C 63.5,132.167 63.5,131.833 63.5,131.5C 64.1174,131.389 64.6174,131.056 65,130.5C 65.3768,131.942 66.2101,132.942 67.5,133.5 Z"/></g>
<g><path style="opacity:1" fill="#8db820" d="M 108.5,128.5 C 107.4,129.605 106.733,130.938 106.5,132.5C 106.158,133.338 105.492,133.672 104.5,133.5C 104.67,130.796 106.003,129.129 108.5,128.5 Z"/></g>
<g><path style="opacity:1" fill="#14270e" d="M 241.5,129.5 C 242.313,130.653 243.313,130.653 244.5,129.5C 245.797,131.973 245.797,134.307 244.5,136.5C 244.5,134.833 244.5,133.167 244.5,131.5C 241.306,132.758 237.973,133.424 234.5,133.5C 233.167,132.833 231.833,132.167 230.5,131.5C 234.414,131.889 238.08,131.222 241.5,129.5 Z"/></g>
<g><path style="opacity:1" fill="#eebf0f" d="M 244.5,136.5 C 243.662,136.842 243.328,137.508 243.5,138.5C 241.704,139.793 240.037,141.293 238.5,143C 235.183,143.498 231.85,143.665 228.5,143.5C 229.494,139.503 231.494,136.17 234.5,133.5C 237.973,133.424 241.306,132.758 244.5,131.5C 244.5,133.167 244.5,134.833 244.5,136.5 Z"/></g>
<g><path style="opacity:1" fill="#e6e6e6" d="M 106.5,132.5 C 110.5,132.5 114.5,132.5 118.5,132.5C 118.5,133.167 118.833,133.5 119.5,133.5C 123.596,134.191 127.596,135.191 131.5,136.5C 131.5,137.167 131.833,137.5 132.5,137.5C 132.5,138.167 132.5,138.833 132.5,139.5C 121.915,139.515 121.915,140.182 132.5,141.5C 132.08,143.326 132.08,145.326 132.5,147.5C 124.114,147.228 123.78,146.394 131.5,145C 128.773,144.182 126.106,144.348 123.5,145.5C 124.902,146.842 124.569,147.676 122.5,148C 125.817,148.498 129.15,148.665 132.5,148.5C 132.423,149.75 131.756,150.583 130.5,151C 130.728,151.399 131.062,151.565 131.5,151.5C 131.5,151.833 131.5,152.167 131.5,152.5C 128.15,152.335 124.817,152.502 121.5,153C 124.5,153.333 127.5,153.667 130.5,154C 117.376,155.617 117.376,156.451 130.5,156.5C 127.359,157.321 124.025,157.821 120.5,158C 132.179,159.181 131.846,160.181 119.5,161C 122.5,161.333 125.5,161.667 128.5,162C 126.167,162.333 123.833,162.667 121.5,163C 123.577,163.192 125.577,163.692 127.5,164.5C 124.553,165.321 121.553,165.821 118.5,166C 121.992,165.93 124.992,166.763 127.5,168.5C 124.087,167.013 120.753,167.18 117.5,169C 120.167,169.667 120.167,170.333 117.5,171C 120.146,171.497 122.813,171.664 125.5,171.5C 124.679,172.51 122.346,173.01 118.5,173C 121.956,173.18 125.289,173.847 128.5,175C 124.5,175.333 120.5,175.667 116.5,176C 120.167,176.333 123.833,176.667 127.5,177C 128.167,178 128.833,179 129.5,180C 129.272,180.399 128.938,180.565 128.5,180.5C 123.752,179.751 119.085,178.751 114.5,177.5C 114.38,176.414 113.713,175.747 112.5,175.5C 108.535,174.47 104.535,174.303 100.5,175C 105.076,175.272 109.409,176.105 113.5,177.5C 107.833,177.5 102.167,177.5 96.5,177.5C 99.1667,162.833 101.833,148.167 104.5,133.5C 105.492,133.672 106.158,133.338 106.5,132.5 Z"/></g>
<g><path style="opacity:1" fill="#eceded" d="M 179.5,177.5 C 173.833,177.5 168.167,177.5 162.5,177.5C 166.803,175.45 171.303,175.117 176,176.5C 176.167,176.167 176.333,175.833 176.5,175.5C 172.541,174.673 168.541,174.173 164.5,174C 168.152,173.501 171.818,173.335 175.5,173.5C 175.5,172.5 175.5,171.5 175.5,170.5C 170.965,169.256 166.298,169.256 161.5,170.5C 160.515,172.398 161.182,173.898 163.5,175C 162.244,175.417 161.577,176.25 161.5,177.5C 158.061,177.788 154.728,178.454 151.5,179.5C 149.952,179.179 149.285,178.179 149.5,176.5C 162.768,176.49 162.768,175.823 149.5,174.5C 152.107,173.682 154.774,173.182 157.5,173C 153.654,173.01 151.321,172.51 150.5,171.5C 153.187,171.664 155.854,171.497 158.5,171C 154.5,170.333 154.5,169.667 158.5,169C 155.091,168.004 151.758,167.171 148.5,166.5C 151.518,166.665 154.518,166.498 157.5,166C 154.183,165.502 150.85,165.335 147.5,165.5C 147.5,164.5 147.5,163.5 147.5,162.5C 147.5,162.167 147.5,161.833 147.5,161.5C 159.427,161.488 159.427,160.821 147.5,159.5C 149.766,158.686 152.1,158.186 154.5,158C 152.1,157.814 149.766,157.314 147.5,156.5C 149.078,155.702 150.744,155.202 152.5,155C 151.167,154.667 149.833,154.333 148.5,154C 156.473,153.174 156.473,152.674 148.5,152.5C 148.5,151.167 148.5,149.833 148.5,148.5C 150.199,148.66 151.866,148.494 153.5,148C 151.423,147.808 149.423,147.308 147.5,146.5C 152.721,145.376 152.721,144.542 147.5,144C 153.759,143.177 153.426,142.343 146.5,141.5C 147.952,140.698 149.618,140.198 151.5,140C 149.527,139.505 147.527,139.338 145.5,139.5C 145.5,138.5 145.5,137.5 145.5,136.5C 153.785,132.504 162.452,131.504 171.5,133.5C 174.165,148.163 176.832,162.829 179.5,177.5 Z"/></g>
<g><path style="opacity:1" fill="#828282" d="M 108.5,137.5 C 109.964,136.84 111.631,136.507 113.5,136.5C 115.712,136.412 117.712,136.912 119.5,138C 115.921,137.663 112.254,137.496 108.5,137.5 Z"/></g>
<g><path style="opacity:1" fill="#828282" d="M 157.5,136.5 C 170.735,136.514 170.735,137.181 157.5,138.5C 156.537,138.03 156.537,137.363 157.5,136.5 Z"/></g>
<g><path style="opacity:1" fill="#cdc13d" d="M 63.5,132.5 C 63.5,136.5 63.5,140.5 63.5,144.5C 60.9206,140.53 60.9206,136.53 63.5,132.5 Z"/></g>
<g><path style="opacity:1" fill="#9ba044" d="M 92.5,136.5 C 93.3049,138.961 92.9715,141.294 91.5,143.5C 91.7148,141.821 91.0481,140.821 89.5,140.5C 89.1583,139.662 88.4916,139.328 87.5,139.5C 88.9649,138.263 90.6316,137.263 92.5,136.5 Z"/></g>
<g><path style="opacity:1" fill="#a0a0a0" d="M 158.5,141.5 C 156.265,140.752 156.598,139.919 159.5,139C 162.634,138.21 165.634,138.543 168.5,140C 164.975,140.179 161.641,140.679 158.5,141.5 Z"/></g>
<g><path style="opacity:1" fill="#207730" d="M 87.5,139.5 C 88.4916,139.328 89.1583,139.662 89.5,140.5C 86.7423,141.377 84.0756,142.544 81.5,144C 79.8588,145.129 78.8588,146.629 78.5,148.5C 77.3249,149.974 76.3249,151.64 75.5,153.5C 74.5993,148.989 75.266,144.656 77.5,140.5C 80.9119,140.568 84.2453,140.235 87.5,139.5 Z"/></g>
<g><path style="opacity:1" fill="#efefef" d="M 208.5,140.5 C 209.942,141.82 210.608,143.486 210.5,145.5C 216.155,145.325 217.488,147.491 214.5,152C 210.916,152.846 207.583,152.346 204.5,150.5C 202.218,151.223 199.884,151.557 197.5,151.5C 196.074,150.659 194.74,149.659 193.5,148.5C 193.232,146.901 193.566,145.568 194.5,144.5C 196.5,144.5 198.5,144.5 200.5,144.5C 201.239,139.631 203.905,138.298 208.5,140.5 Z"/></g>
<g><path style="opacity:1" fill="#f2ec24" d="M 89.5,140.5 C 91.0481,140.821 91.7148,141.821 91.5,143.5C 91.5792,144.93 91.2458,146.264 90.5,147.5C 88.5,148.833 86.8333,150.5 85.5,152.5C 84.3112,153.429 82.9778,153.762 81.5,153.5C 80.448,153.649 79.448,153.483 78.5,153C 80.6381,151.578 81.8047,149.745 82,147.5C 81,148.5 80,149.5 79,150.5C 78.5357,149.906 78.369,149.239 78.5,148.5C 78.8588,146.629 79.8588,145.129 81.5,144C 84.0756,142.544 86.7423,141.377 89.5,140.5 Z"/></g>
<g><path style="opacity:1" fill="#909090" d="M 114.5,140.5 C 115.601,139.402 116.934,139.235 118.5,140C 118.833,141 119.167,142 119.5,143C 115.517,143.004 111.517,142.671 107.5,142C 110.833,141.667 114.167,141.333 117.5,141C 116.552,140.517 115.552,140.351 114.5,140.5 Z"/></g>
<g><path style="opacity:1" fill="#303030" d="M 132.5,139.5 C 133.162,141.304 133.495,143.304 133.5,145.5C 133.461,147.952 132.794,149.952 131.5,151.5C 131.062,151.565 130.728,151.399 130.5,151C 131.756,150.583 132.423,149.75 132.5,148.5C 132.5,148.167 132.5,147.833 132.5,147.5C 132.08,145.326 132.08,143.326 132.5,141.5C 121.915,140.182 121.915,139.515 132.5,139.5 Z"/></g>
<g><path style="opacity:1" fill="#5f5f5f" d="M 158.5,141.5 C 171.735,141.514 171.735,142.181 158.5,143.5C 157.537,143.03 157.537,142.363 158.5,141.5 Z"/></g>
<g><path style="opacity:1" fill="#294014" d="M 35.5,136.5 C 35.1924,138.924 35.5258,141.257 36.5,143.5C 39.357,142.037 42.357,141.037 45.5,140.5C 46.4475,141.978 47.7809,142.978 49.5,143.5C 44.1538,142.678 39.8204,144.345 36.5,148.5C 35.632,146.103 34.9653,143.603 34.5,141C 34.5085,139.293 34.8418,137.793 35.5,136.5 Z"/></g>
<g><path style="opacity:1" fill="#959595" d="M 162.5,143.5 C 164.989,143.298 167.323,143.798 169.5,145C 165.833,145.667 162.167,145.667 158.5,145C 160.058,144.79 161.391,144.29 162.5,143.5 Z"/></g>
<g><path style="opacity:1" fill="#f0c00f" d="M 49.5,143.5 C 49.552,145.903 49.2186,148.236 48.5,150.5C 44.6479,153.294 40.4813,155.627 36,157.5C 35.5034,155.19 35.3367,152.857 35.5,150.5C 36.3382,150.158 36.6716,149.492 36.5,148.5C 39.8204,144.345 44.1538,142.678 49.5,143.5 Z"/></g>
<g><path style="opacity:1" fill="#9d9d9d" d="M 108.5,143.5 C 111.568,143.547 114.568,144.047 117.5,145C 113.833,145.667 110.167,145.667 106.5,145C 107.416,144.722 108.082,144.222 108.5,143.5 Z"/></g>
<g><path style="opacity:1" fill="#eebe0f" d="M 243.5,147.5 C 242.449,149.929 241.116,152.262 239.5,154.5C 236.365,156.023 233.032,156.69 229.5,156.5C 228.909,155.849 228.243,155.182 227.5,154.5C 228.592,151.976 229.926,149.643 231.5,147.5C 235.136,146.168 238.803,144.835 242.5,143.5C 243.429,144.689 243.762,146.022 243.5,147.5 Z"/></g>
<g><path style="opacity:1" fill="#1e2e10" d="M 243.5,138.5 C 244.082,141.372 244.082,144.372 243.5,147.5C 243.762,146.022 243.429,144.689 242.5,143.5C 238.803,144.835 235.136,146.168 231.5,147.5C 231.229,145.57 230.229,144.236 228.5,143.5C 231.85,143.665 235.183,143.498 238.5,143C 240.037,141.293 241.704,139.793 243.5,138.5 Z"/></g>
<g><path style="opacity:1" fill="#707070" d="M 160.5,146.5 C 169.752,146.523 169.752,147.19 160.5,148.5C 159.833,148.333 159.167,148.167 158.5,148C 159.416,147.722 160.082,147.222 160.5,146.5 Z"/></g>
<g><path style="opacity:1" fill="#858585" d="M 132.5,147.5 C 132.5,147.833 132.5,148.167 132.5,148.5C 129.15,148.665 125.817,148.498 122.5,148C 124.569,147.676 124.902,146.842 123.5,145.5C 126.106,144.348 128.773,144.182 131.5,145C 123.78,146.394 124.114,147.228 132.5,147.5 Z"/></g>
<g><path style="opacity:1" fill="#707070" d="M 159.5,149.5 C 174.07,149.512 174.07,150.179 159.5,151.5C 158.537,151.03 158.537,150.363 159.5,149.5 Z"/></g>
<g><path style="opacity:1" fill="#8e8e8e" d="M 105.5,146.5 C 109.605,146.234 113.605,146.734 117.5,148C 114.514,147.872 111.514,147.872 108.5,148C 111.883,148.875 115.216,149.875 118.5,151C 115.456,151.359 115.122,152.026 117.5,153C 113.517,153.004 109.517,152.671 105.5,152C 117.5,151.333 117.5,150.667 105.5,150C 106.167,149.667 106.833,149.333 107.5,149C 106.244,148.583 105.577,147.75 105.5,146.5 Z"/></g>
<g><path style="opacity:1" fill="#aca648" d="M 77.5,123.5 C 78.3019,124.952 78.8019,126.618 79,128.5C 79.6082,126.934 80.4415,125.6 81.5,124.5C 80.2951,128.618 78.9617,132.785 77.5,137C 77.8333,137.5 78.1667,138 78.5,138.5C 79.5207,137.099 80.5207,135.765 81.5,134.5C 81.369,135.239 81.5357,135.906 82,136.5C 82.7175,135.549 83.5509,135.383 84.5,136C 80.8067,139.218 81.8067,140.384 87.5,139.5C 84.2453,140.235 80.9119,140.568 77.5,140.5C 75.266,144.656 74.5993,148.989 75.5,153.5C 76.3249,151.64 77.3249,149.974 78.5,148.5C 78.369,149.239 78.5357,149.906 79,150.5C 80,149.5 81,148.5 82,147.5C 81.8047,149.745 80.6381,151.578 78.5,153C 79.448,153.483 80.448,153.649 81.5,153.5C 79.4437,154.216 77.277,154.883 75,155.5C 74.5026,158.146 74.3359,160.813 74.5,163.5C 73.1667,162.833 72.1667,161.833 71.5,160.5C 72.6291,158.372 72.7958,156.039 72,153.5C 70.3333,152.267 68.8333,150.933 67.5,149.5C 69.045,148.77 69.8784,147.437 70,145.5C 70.3076,146.308 70.8076,146.975 71.5,147.5C 72.4656,145.604 72.7989,143.604 72.5,141.5C 73.3019,142.952 73.8019,144.618 74,146.5C 74.3108,144.444 74.8108,142.444 75.5,140.5C 74.5223,137.25 72.8556,134.583 70.5,132.5C 71.4584,132.953 72.2917,133.619 73,134.5C 73.3333,132.5 73.6667,130.5 74,128.5C 75.0437,129.623 75.7104,130.956 76,132.5C 77.1488,129.607 77.6488,126.607 77.5,123.5 Z"/></g>
<g><path style="opacity:1" fill="#9e9e9e" d="M 161.5,151.5 C 164.898,151.18 168.232,151.513 171.5,152.5C 169.009,153.541 169.009,154.374 171.5,155C 167.126,155.539 162.792,155.872 158.5,156C 161.73,154.692 165.064,153.692 168.5,153C 165.798,152.393 163.132,152.56 160.5,153.5C 159.833,153.333 159.167,153.167 158.5,153C 159.737,152.768 160.737,152.268 161.5,151.5 Z"/></g>
<g><path style="opacity:1" fill="#6f6f6f" d="M 104.5,155.5 C 108.769,154.109 113.102,154.276 117.5,156C 113.209,155.804 108.876,155.637 104.5,155.5 Z"/></g>
<g><path style="opacity:1" fill="#636363" d="M 146.5,141.5 C 153.426,142.343 153.759,143.177 147.5,144C 152.721,144.542 152.721,145.376 147.5,146.5C 149.423,147.308 151.423,147.808 153.5,148C 151.866,148.494 150.199,148.66 148.5,148.5C 148.5,149.833 148.5,151.167 148.5,152.5C 156.473,152.674 156.473,153.174 148.5,154C 149.833,154.333 151.167,154.667 152.5,155C 150.744,155.202 149.078,155.702 147.5,156.5C 149.766,157.314 152.1,157.814 154.5,158C 152.1,158.186 149.766,158.686 147.5,159.5C 159.427,160.821 159.427,161.488 147.5,161.5C 146.776,155.477 146.11,149.311 145.5,143C 145.57,142.235 145.903,141.735 146.5,141.5 Z"/></g>
<g><path style="opacity:1" fill="#979797" d="M 131.5,152.5 C 131.567,153.959 131.234,155.292 130.5,156.5C 117.376,156.451 117.376,155.617 130.5,154C 127.5,153.667 124.5,153.333 121.5,153C 124.817,152.502 128.15,152.335 131.5,152.5 Z"/></g>
<g><path style="opacity:1" fill="#243913" d="M 35.5,150.5 C 35.3367,152.857 35.5034,155.19 36,157.5C 40.4813,155.627 44.6479,153.294 48.5,150.5C 48.0844,152.752 46.751,154.252 44.5,155C 46.0581,155.21 47.3915,155.71 48.5,156.5C 43.6291,156.231 39.6291,157.897 36.5,161.5C 34.4632,157.889 34.1299,154.222 35.5,150.5 Z"/></g>
<g><path style="opacity:1" fill="#f1c00f" d="M 48.5,156.5 C 49.6227,158.688 49.6227,161.021 48.5,163.5C 44.7329,166.469 40.5662,168.802 36,170.5C 35.5034,168.19 35.3367,165.857 35.5,163.5C 36.3382,163.158 36.6716,162.492 36.5,161.5C 39.6291,157.897 43.6291,156.231 48.5,156.5 Z"/></g>
<g><path style="opacity:1" fill="#083b19" d="M 193.5,148.5 C 194.74,149.659 196.074,150.659 197.5,151.5C 195.335,151.116 193.668,151.783 192.5,153.5C 194.149,154.648 195.649,155.981 197,157.5C 198.232,161.061 199.732,164.394 201.5,167.5C 201.158,168.338 200.492,168.672 199.5,168.5C 198.653,162.47 195.986,157.47 191.5,153.5C 192.187,151.823 192.854,150.156 193.5,148.5 Z"/></g>
<g><path style="opacity:1" fill="#1c3612" d="M 239.5,154.5 C 237.969,155.925 238.302,156.591 240.5,156.5C 238.064,157.871 235.397,158.871 232.5,159.5C 232.611,158.883 232.944,158.383 233.5,158C 231.942,157.79 230.609,157.29 229.5,156.5C 233.032,156.69 236.365,156.023 239.5,154.5 Z"/></g>
<g><path style="opacity:1" fill="#919191" d="M 104.5,156.5 C 108.68,156.189 112.68,156.855 116.5,158.5C 112.732,157.925 108.732,157.925 104.5,158.5C 103.537,158.03 103.537,157.363 104.5,156.5 Z"/></g>
<g><path style="opacity:1" fill="#b0b0b0" d="M 164.5,156.5 C 167.397,156.125 170.063,156.625 172.5,158C 169.833,158.667 169.833,159.333 172.5,160C 168.145,160.634 163.812,160.967 159.5,161C 160.641,160.259 160.641,159.425 159.5,158.5C 161.291,157.83 162.958,157.163 164.5,156.5 Z"/></g>
<g><path style="opacity:1" fill="#f0c00f" d="M 240.5,156.5 C 241.906,166.753 237.239,171.086 226.5,169.5C 226.977,165.207 228.977,161.873 232.5,159.5C 235.397,158.871 238.064,157.871 240.5,156.5 Z"/></g>
<g><path style="opacity:1" fill="#f5f01d" d="M 96.5,192.5 C 96.8204,195.898 96.487,199.232 95.5,202.5C 93.6803,195.253 91.5136,187.919 89,180.5C 89.8227,186.162 90.9893,191.829 92.5,197.5C 92.1667,198.5 91.8333,199.5 91.5,200.5C 89.5866,199.627 87.7533,198.627 86,197.5C 85.2592,191.868 83.5926,186.535 81,181.5C 81.9232,185.958 83.0899,190.458 84.5,195C 84.1667,195.5 83.8333,196 83.5,196.5C 82.8243,195.398 82.1577,194.398 81.5,193.5C 79.9329,189.367 78.0995,185.367 76,181.5C 74.383,179.237 72.5497,177.237 70.5,175.5C 68.2963,172.463 66.2963,169.296 64.5,166C 64.7549,164.674 65.4216,163.674 66.5,163C 65.0198,160.765 65.3531,158.932 67.5,157.5C 68.8333,158.5 70.1667,159.5 71.5,160.5C 72.1667,161.833 73.1667,162.833 74.5,163.5C 77.147,166.117 79.3137,169.117 81,172.5C 81.2085,166.199 83.5418,160.865 88,156.5C 88.8577,165.882 91.191,174.882 95,183.5C 95.9533,186.432 96.4533,189.432 96.5,192.5 Z"/></g>
<g><path style="opacity:1" fill="#faf810" d="M 63.5,159.5 C 64.0967,159.735 64.4301,160.235 64.5,161C 63.2741,164.402 62.6074,167.902 62.5,171.5C 62.5,171.833 62.5,172.167 62.5,172.5C 61.1038,179.449 60.1038,186.449 59.5,193.5C 58.142,190.126 56.8086,186.793 55.5,183.5C 54.6864,178.881 54.3531,174.214 54.5,169.5C 54.8333,168.5 55.5,167.833 56.5,167.5C 57.3195,170.305 57.8195,173.305 58,176.5C 58.7354,172.187 59.2354,167.853 59.5,163.5C 60.5,161.833 61.8333,160.5 63.5,159.5 Z"/></g>
<g><path style="opacity:1" fill="#979797" d="M 104.5,161.5 C 108.654,161.631 112.654,162.464 116.5,164C 111.877,163.854 107.21,163.52 102.5,163C 103.416,162.722 104.082,162.222 104.5,161.5 Z"/></g>
<g><path style="opacity:1" fill="#888888" d="M 161.5,162.5 C 165.514,162.334 169.514,162.501 173.5,163C 168.79,163.52 164.123,163.854 159.5,164C 160.416,163.722 161.082,163.222 161.5,162.5 Z"/></g>
<g><path style="opacity:1" fill="#616161" d="M 131.5,152.5 C 132.124,152.917 132.457,153.584 132.5,154.5C 129.325,163.286 128.658,172.286 130.5,181.5C 129.508,181.672 128.842,181.338 128.5,180.5C 128.938,180.565 129.272,180.399 129.5,180C 128.833,179 128.167,178 127.5,177C 123.833,176.667 120.167,176.333 116.5,176C 120.5,175.667 124.5,175.333 128.5,175C 125.289,173.847 121.956,173.18 118.5,173C 122.346,173.01 124.679,172.51 125.5,171.5C 126.551,170.778 127.218,169.778 127.5,168.5C 124.992,166.763 121.992,165.93 118.5,166C 121.553,165.821 124.553,165.321 127.5,164.5C 125.577,163.692 123.577,163.192 121.5,163C 123.833,162.667 126.167,162.333 128.5,162C 125.5,161.667 122.5,161.333 119.5,161C 131.846,160.181 132.179,159.181 120.5,158C 124.025,157.821 127.359,157.321 130.5,156.5C 131.234,155.292 131.567,153.959 131.5,152.5 Z"/></g>
<g><path style="opacity:1" fill="#d1bf41" d="M 67.5,157.5 C 65.3531,158.932 65.0198,160.765 66.5,163C 65.4216,163.674 64.7549,164.674 64.5,166C 66.2963,169.296 68.2963,172.463 70.5,175.5C 68.2034,173.706 66.0367,171.706 64,169.5C 63.7216,170.416 63.2216,171.082 62.5,171.5C 62.6074,167.902 63.2741,164.402 64.5,161C 64.4301,160.235 64.0967,159.735 63.5,159.5C 64.2257,156.987 65.5591,156.321 67.5,157.5 Z"/></g>
<g><path style="opacity:1" fill="#9f9f9f" d="M 101.5,164.5 C 106.203,164.437 110.87,164.771 115.5,165.5C 115.762,166.978 115.429,168.311 114.5,169.5C 109.898,167.74 105.231,167.24 100.5,168C 101.337,166.989 101.67,165.822 101.5,164.5 Z"/></g>
<g><path style="opacity:1" fill="#b1b1b1" d="M 164.5,164.5 C 167.833,164.5 171.167,164.5 174.5,164.5C 174.33,165.822 174.663,166.989 175.5,168C 170.78,168.221 166.113,168.721 161.5,169.5C 160.571,168.311 160.238,166.978 160.5,165.5C 162.099,165.768 163.432,165.434 164.5,164.5 Z"/></g>
<g><path style="opacity:1" fill="#213211" d="M 240.5,156.5 C 240.56,155.957 240.893,155.624 241.5,155.5C 242.933,159.196 242.6,162.696 240.5,166C 243.1,170.469 242.767,174.636 239.5,178.5C 240.492,175.221 240.659,171.888 240,168.5C 236.83,170.27 233.663,171.937 230.5,173.5C 230.586,172.504 230.252,171.671 229.5,171C 228.263,170.768 227.263,170.268 226.5,169.5C 237.239,171.086 241.906,166.753 240.5,156.5 Z"/></g>
<g><path style="opacity:1" fill="#a8a8a8" d="M 127.5,168.5 C 127.218,169.778 126.551,170.778 125.5,171.5C 122.813,171.664 120.146,171.497 117.5,171C 120.167,170.333 120.167,169.667 117.5,169C 120.753,167.18 124.087,167.013 127.5,168.5 Z"/></g>
<g><path style="opacity:1" fill="#4c4c4c" d="M 147.5,162.5 C 147.5,163.5 147.5,164.5 147.5,165.5C 150.85,165.335 154.183,165.502 157.5,166C 154.518,166.498 151.518,166.665 148.5,166.5C 147.957,166.56 147.624,166.893 147.5,167.5C 148.172,169.16 149.172,170.493 150.5,171.5C 151.321,172.51 153.654,173.01 157.5,173C 154.774,173.182 152.107,173.682 149.5,174.5C 162.768,175.823 162.768,176.49 149.5,176.5C 149.285,178.179 149.952,179.179 151.5,179.5C 151.158,180.338 150.492,180.672 149.5,180.5C 147.119,174.625 146.453,168.625 147.5,162.5 Z"/></g>
<g><path style="opacity:1" fill="#f0f0f0" d="M 199.5,168.5 C 200.492,168.672 201.158,168.338 201.5,167.5C 206.782,168.577 208.949,171.91 208,177.5C 211.405,180.504 211.238,183.171 207.5,185.5C 205.566,183.703 203.233,182.703 200.5,182.5C 200.305,178.808 198.305,176.974 194.5,177C 192.077,175.429 190.744,173.263 190.5,170.5C 192.627,166.61 195.127,166.61 198,170.5C 198.717,169.956 199.217,169.289 199.5,168.5 Z"/></g>
<g><path style="opacity:1" fill="#e8ba0e" d="M 49.5,176.5 C 48.1667,177.167 47.1667,178.167 46.5,179.5C 43.492,180.42 40.6587,181.754 38,183.5C 37.6174,182.944 37.1174,182.611 36.5,182.5C 36.5751,179.794 36.9084,177.127 37.5,174.5C 40.6187,170.11 44.952,168.11 50.5,168.5C 50.4249,171.206 50.0916,173.873 49.5,176.5 Z"/></g>
<g><path style="opacity:1" fill="#a7a7a7" d="M 148.5,166.5 C 151.758,167.171 155.091,168.004 158.5,169C 154.5,169.667 154.5,170.333 158.5,171C 155.854,171.497 153.187,171.664 150.5,171.5C 149.172,170.493 148.172,169.16 147.5,167.5C 147.624,166.893 147.957,166.56 148.5,166.5 Z"/></g>
<g><path style="opacity:1" fill="#686868" d="M 175.5,170.5 C 170.61,170.723 165.943,170.723 161.5,170.5C 166.298,169.256 170.965,169.256 175.5,170.5 Z"/></g>
<g><path style="opacity:1" fill="#f0c00f" d="M 239.5,178.5 C 236.471,181.4 232.804,182.734 228.5,182.5C 227.503,182.53 226.836,182.03 226.5,181C 227.001,177.952 228.334,175.452 230.5,173.5C 233.663,171.937 236.83,170.27 240,168.5C 240.659,171.888 240.492,175.221 239.5,178.5 Z"/></g>
<g><path style="opacity:1" fill="#dac044" d="M 59.5,163.5 C 59.2354,167.853 58.7354,172.187 58,176.5C 57.8195,173.305 57.3195,170.305 56.5,167.5C 56.7376,165.596 57.7376,164.262 59.5,163.5 Z"/></g>
<g><path style="opacity:1" fill="#bababa" d="M 161.5,170.5 C 165.943,170.723 170.61,170.723 175.5,170.5C 175.5,171.5 175.5,172.5 175.5,173.5C 171.818,173.335 168.152,173.501 164.5,174C 168.541,174.173 172.541,174.673 176.5,175.5C 176.333,175.833 176.167,176.167 176,176.5C 171.303,175.117 166.803,175.45 162.5,177.5C 162.167,177.5 161.833,177.5 161.5,177.5C 161.577,176.25 162.244,175.417 163.5,175C 161.182,173.898 160.515,172.398 161.5,170.5 Z"/></g>
<g><path style="opacity:1" fill="#c9bd40" d="M 54.5,169.5 C 54.3531,174.214 54.6864,178.881 55.5,183.5C 53.9532,181.193 53.2865,178.527 53.5,175.5C 53.5046,173.304 53.838,171.304 54.5,169.5 Z"/></g>
<g><path style="opacity:1" fill="#0b6429" d="M 190.5,170.5 C 190.744,173.263 192.077,175.429 194.5,177C 198.305,176.974 200.305,178.808 200.5,182.5C 203.233,182.703 205.566,183.703 207.5,185.5C 207.5,186.833 207.5,188.167 207.5,189.5C 199.958,193.232 192.291,196.565 184.5,199.5C 183.503,199.53 182.836,199.03 182.5,198C 184.619,192.857 185.952,187.524 186.5,182C 186.66,179.53 185.993,177.364 184.5,175.5C 186.255,173.484 188.255,171.817 190.5,170.5 Z"/></g>
<g><path style="opacity:1" fill="#898989" d="M 114.5,177.5 C 114.167,177.5 113.833,177.5 113.5,177.5C 109.409,176.105 105.076,175.272 100.5,175C 104.535,174.303 108.535,174.47 112.5,175.5C 113.713,175.747 114.38,176.414 114.5,177.5 Z"/></g>
<g><path style="opacity:1" fill="#173513" d="M 35.5,163.5 C 35.3367,165.857 35.5034,168.19 36,170.5C 40.5662,168.802 44.7329,166.469 48.5,163.5C 48.4894,165.017 47.8228,166.184 46.5,167C 48.1341,167.494 49.8008,167.66 51.5,167.5C 51.9321,170.877 51.2655,173.877 49.5,176.5C 50.0916,173.873 50.4249,171.206 50.5,168.5C 44.952,168.11 40.6187,170.11 37.5,174.5C 37.4142,173.504 37.7476,172.671 38.5,172C 37.2068,171.51 35.8734,171.343 34.5,171.5C 34.1936,168.615 34.5269,165.948 35.5,163.5 Z"/></g>
<g><path style="opacity:1" fill="#050906" d="M 96.5,177.5 C 102.167,177.5 107.833,177.5 113.5,177.5C 113.833,177.5 114.167,177.5 114.5,177.5C 119.085,178.751 123.752,179.751 128.5,180.5C 128.842,181.338 129.508,181.672 130.5,181.5C 130.819,186.363 130.486,191.03 129.5,195.5C 129.662,193.473 129.495,191.473 129,189.5C 119.147,186.121 108.981,184.787 98.5,185.5C 98.4403,182.659 97.7736,179.993 96.5,177.5 Z"/></g>
<g><path style="opacity:1" fill="#09100a" d="M 161.5,177.5 C 161.833,177.5 162.167,177.5 162.5,177.5C 168.167,177.5 173.833,177.5 179.5,177.5C 178.226,179.993 177.56,182.659 177.5,185.5C 170.825,185.334 164.158,185.5 157.5,186C 155.782,186.346 154.115,186.846 152.5,187.5C 151.502,195.807 151.169,204.14 151.5,212.5C 151.5,213.167 151.167,213.5 150.5,213.5C 150.74,202.469 150.407,191.469 149.5,180.5C 150.492,180.672 151.158,180.338 151.5,179.5C 154.728,178.454 158.061,177.788 161.5,177.5 Z"/></g>
<g><path style="opacity:1" fill="#163111" d="M 46.5,179.5 C 47.8333,180.167 49.1667,180.833 50.5,181.5C 48.2646,181.205 46.2646,181.539 44.5,182.5C 41.865,183.473 39.865,185.14 38.5,187.5C 37.4975,185.989 36.8308,184.322 36.5,182.5C 37.1174,182.611 37.6174,182.944 38,183.5C 40.6587,181.754 43.492,180.42 46.5,179.5 Z"/></g>
<g><path style="opacity:1" fill="#886d08" d="M 44.5,182.5 C 46.2646,181.539 48.2646,181.205 50.5,181.5C 51.8333,182.5 51.8333,183.5 50.5,184.5C 49.0821,182.692 47.0821,182.025 44.5,182.5 Z"/></g>
<g><path style="opacity:1" fill="#f0c00f" d="M 44.5,182.5 C 47.0821,182.025 49.0821,182.692 50.5,184.5C 50.4828,186.565 50.1495,188.565 49.5,190.5C 45.5927,192.691 41.5927,194.691 37.5,196.5C 37.3677,193.43 37.701,190.43 38.5,187.5C 39.865,185.14 41.865,183.473 44.5,182.5 Z"/></g>
<g><path style="opacity:1" fill="#1e220a" d="M 239.5,178.5 C 241.487,181.859 241.987,185.525 241,189.5C 240.617,190.056 240.117,190.389 239.5,190.5C 240.643,187.498 240.643,184.498 239.5,181.5C 237.261,182.788 234.928,183.788 232.5,184.5C 231.167,183.833 229.833,183.167 228.5,182.5C 232.804,182.734 236.471,181.4 239.5,178.5 Z"/></g>
<g><path style="opacity:1" fill="#efbf0f" d="M 239.5,190.5 C 236.215,194.634 231.882,196.301 226.5,195.5C 226.5,194.167 226.5,192.833 226.5,191.5C 227.789,188.609 229.789,186.275 232.5,184.5C 234.928,183.788 237.261,182.788 239.5,181.5C 240.643,184.498 240.643,187.498 239.5,190.5 Z"/></g>
<g><path style="opacity:1" fill="#555454" d="M 144.5,213.5 C 144.167,213.5 143.833,213.5 143.5,213.5C 142.384,204.664 142.384,195.664 143.5,186.5C 142.175,178.563 141.175,170.563 140.5,162.5C 140.507,159.408 141.007,156.408 142,153.5C 141.963,164.311 143.13,174.978 145.5,185.5C 143.479,194.798 143.146,204.131 144.5,213.5 Z"/></g>
<g><path style="opacity:1" fill="#bcb542" d="M 62.5,172.5 C 62.0225,180.163 61.5225,187.83 61,195.5C 60.2828,194.956 59.7828,194.289 59.5,193.5C 60.1038,186.449 61.1038,179.449 62.5,172.5 Z"/></g>
<g><path style="opacity:1" fill="#343333" d="M 137.5,157.5 C 138.577,166.346 139.577,175.346 140.5,184.5C 139.211,194.117 138.378,203.784 138,213.5C 137.288,203.935 137.788,194.435 139.5,185C 138.146,175.883 137.48,166.716 137.5,157.5 Z"/></g>
<g><path style="opacity:1" fill="#ecbd0e" d="M 39.5,208.5 C 39.5,205.833 39.5,203.167 39.5,200.5C 42.2267,195.302 46.56,192.968 52.5,193.5C 52.1567,201.85 47.8234,206.85 39.5,208.5 Z"/></g>
<g><path style="opacity:1" fill="#243c14" d="M 239.5,190.5 C 239.586,191.496 239.252,192.329 238.5,193C 239.624,193.839 240.291,195.006 240.5,196.5C 240.482,199.751 239.482,202.417 237.5,204.5C 238.468,201.555 238.634,198.555 238,195.5C 234.532,196.933 231.032,198.267 227.5,199.5C 227.611,198.883 227.944,198.383 228.5,198C 225.739,196.295 225.073,194.129 226.5,191.5C 226.5,192.833 226.5,194.167 226.5,195.5C 231.882,196.301 236.215,194.634 239.5,190.5 Z"/></g>
<g><path style="opacity:1" fill="#4f4e4f" d="M 132.5,176.5 C 134.074,182.264 135.074,188.264 135.5,194.5C 134.764,200.913 133.598,207.247 132,213.5C 132.604,207.072 133.104,200.572 133.5,194C 133.219,188.158 132.886,182.325 132.5,176.5 Z"/></g>
<g><path style="opacity:1" fill="#f1c10f" d="M 237.5,204.5 C 234.271,207.925 230.271,209.258 225.5,208.5C 224.876,208.083 224.543,207.416 224.5,206.5C 225.237,204.03 226.237,201.696 227.5,199.5C 231.032,198.267 234.532,196.933 238,195.5C 238.634,198.555 238.468,201.555 237.5,204.5 Z"/></g>
<g><path style="opacity:1" fill="#273a12" d="M 237.5,204.5 C 237.586,205.496 237.252,206.329 236.5,207C 238.784,209.421 238.784,211.921 236.5,214.5C 236.66,212.801 236.494,211.134 236,209.5C 232.951,210.61 229.784,211.277 226.5,211.5C 226.611,210.883 226.944,210.383 227.5,210C 226.584,209.722 225.918,209.222 225.5,208.5C 230.271,209.258 234.271,207.925 237.5,204.5 Z"/></g>
<g><path style="opacity:1" fill="#efc00f" d="M 236.5,214.5 C 235.248,216.001 234.248,217.668 233.5,219.5C 230.034,221.092 226.367,221.758 222.5,221.5C 221.699,219.958 221.366,218.292 221.5,216.5C 222.947,214.597 224.614,212.93 226.5,211.5C 229.784,211.277 232.951,210.61 236,209.5C 236.494,211.134 236.66,212.801 236.5,214.5 Z"/></g>
<g><path style="opacity:1" fill="#ccb45b" d="M 96.5,192.5 C 97.1913,196.899 97.858,201.399 98.5,206C 106.788,209.739 115.455,211.905 124.5,212.5C 124.5,213.167 124.833,213.5 125.5,213.5C 131.651,214.664 137.651,214.664 143.5,213.5C 143.833,213.5 144.167,213.5 144.5,213.5C 146.5,213.5 148.5,213.5 150.5,213.5C 151.167,213.5 151.5,213.167 151.5,212.5C 160.477,211.676 169.144,209.509 177.5,206C 178.071,204.795 178.738,203.628 179.5,202.5C 181.396,201.725 183.063,200.725 184.5,199.5C 192.291,196.565 199.958,193.232 207.5,189.5C 209.383,187.864 211.383,187.531 213.5,188.5C 210.833,192.167 208.167,195.833 205.5,199.5C 210.5,200.167 215.5,200.833 220.5,201.5C 211.844,206.495 202.844,210.995 193.5,215C 193.167,216 192.833,217 192.5,218C 181.383,223.539 169.716,227.372 157.5,229.5C 151.261,230.624 144.928,231.291 138.5,231.5C 138.167,231.5 137.833,231.5 137.5,231.5C 131.033,231.67 124.7,231.004 118.5,229.5C 106.189,227.671 94.5222,223.838 83.5,218C 82.6634,216.989 82.33,215.822 82.5,214.5C 72.7962,211.48 63.7962,207.147 55.5,201.5C 60.5,200.833 65.5,200.167 70.5,199.5C 68.1924,196.025 65.6924,192.692 63,189.5C 62.4092,188.517 62.7425,187.85 64,187.5C 69.5302,190.015 75.0302,192.681 80.5,195.5C 81.2975,195.043 81.6309,194.376 81.5,193.5C 82.1577,194.398 82.8243,195.398 83.5,196.5C 83.8333,196 84.1667,195.5 84.5,195C 83.0899,190.458 81.9232,185.958 81,181.5C 83.5926,186.535 85.2592,191.868 86,197.5C 87.7533,198.627 89.5866,199.627 91.5,200.5C 91.8333,199.5 92.1667,198.5 92.5,197.5C 90.9893,191.829 89.8227,186.162 89,180.5C 91.5136,187.919 93.6803,195.253 95.5,202.5C 96.487,199.232 96.8204,195.898 96.5,192.5 Z"/></g>
<g><path style="opacity:1" fill="#1e2d1f" d="M 126.5,204.5 C 126.296,207.518 125.963,210.518 125.5,213.5C 124.833,213.5 124.5,213.167 124.5,212.5C 124.565,209.572 125.232,206.905 126.5,204.5 Z"/></g>
<g><path style="opacity:1" fill="#f6f5f2" d="M 91.5,205.5 C 121.979,218.792 152.479,218.792 183,205.5C 186.289,208.71 189.123,212.377 191.5,216.5C 156.382,233.468 121.048,233.802 85.5,217.5C 85.1667,217.167 84.8333,216.833 84.5,216.5C 87.0938,212.974 89.4271,209.308 91.5,205.5 Z"/></g>
<g><path style="opacity:1" fill="#505050" d="M 166.5,214.5 C 168.346,214.222 169.68,214.889 170.5,216.5C 169.289,217.72 169.289,218.887 170.5,220C 169.167,220 167.833,220 166.5,220C 167.711,220.893 167.711,221.726 166.5,222.5C 164.349,219.579 164.349,216.913 166.5,214.5 Z"/></g>
<g><path style="opacity:1" fill="#3a3a3a" d="M 97.5,211.5 C 99.9124,211.244 101.579,212.244 102.5,214.5C 100.339,215.778 98.1728,217.111 96,218.5C 95.7607,216.041 96.2607,213.707 97.5,211.5 Z"/></g>
<g><path style="opacity:1" fill="#e0e0e0" d="M 98.5,213.5 C 100.337,213.639 100.67,214.306 99.5,215.5C 98.7025,215.043 98.3691,214.376 98.5,213.5 Z"/></g>
<g><path style="opacity:1" fill="#fdfbf8" d="M 208.5,190.5 C 209.525,190.897 209.692,191.563 209,192.5C 206.594,194.983 204.427,197.65 202.5,200.5C 206.746,201.75 211.079,202.583 215.5,203C 207.713,206.977 199.879,210.811 192,214.5C 189.667,211.167 187.333,207.833 185,204.5C 184.251,203.365 184.417,202.365 185.5,201.5C 193.379,198.058 201.046,194.392 208.5,190.5 Z"/></g>
<g><path style="opacity:1" fill="#fdfbf8" d="M 66.5,190.5 C 74.4739,194.152 82.4739,197.819 90.5,201.5C 91.5827,202.365 91.7494,203.365 91,204.5C 88.6667,207.833 86.3333,211.167 84,214.5C 76.1208,210.811 68.2874,206.977 60.5,203C 64.9206,202.583 69.254,201.75 73.5,200.5C 70.6546,197.458 68.3213,194.125 66.5,190.5 Z"/></g>
<g><path style="opacity:1" fill="#414141" d="M 177.5,212.5 C 178.077,211.227 178.743,211.227 179.5,212.5C 181.206,215.483 180.706,217.816 178,219.5C 174.797,218.01 173.631,215.677 174.5,212.5C 175.219,214.517 176.386,216.183 178,217.5C 178.5,217.167 179,216.833 179.5,216.5C 179.006,214.974 178.339,213.641 177.5,212.5 Z"/></g>
<g><path style="opacity:1" fill="#f2c10f" d="M 57.5,224.5 C 57.5,225.167 57.5,225.833 57.5,226.5C 54.8049,229.191 51.8049,231.525 48.5,233.5C 47.8182,232.757 47.1515,232.091 46.5,231.5C 45.7371,223.27 49.4038,218.604 57.5,217.5C 57.5,219.833 57.5,222.167 57.5,224.5 Z"/></g>
<g><path style="opacity:1" fill="#4a4a4a" d="M 118.5,219.5 C 119.002,217.915 120.002,217.415 121.5,218C 120.756,219.039 119.756,219.539 118.5,219.5 Z"/></g>
<g><path style="opacity:1" fill="#343434" d="M 118.5,219.5 C 118.5,220.5 118.5,221.5 118.5,222.5C 116.501,221.143 115.335,221.81 115,224.5C 114.186,222.098 114.353,219.765 115.5,217.5C 116.265,218.612 117.265,219.279 118.5,219.5 Z"/></g>
<g><path style="opacity:1" fill="#383838" d="M 106.5,214.5 C 108.308,214.491 109.975,214.991 111.5,216C 106.822,216.197 106.488,217.197 110.5,219C 106.068,219.623 105.735,220.623 109.5,222C 107.888,222.72 106.388,222.554 105,221.5C 104.761,219.041 105.261,216.707 106.5,214.5 Z"/></g>
<g><path style="opacity:1" fill="#33370e" d="M 221.5,216.5 C 221.366,218.292 221.699,219.958 222.5,221.5C 221.325,221.719 220.325,221.386 219.5,220.5C 219.994,218.974 220.661,217.641 221.5,216.5 Z"/></g>
<g><path style="opacity:1" fill="#494949" d="M 156.5,217.5 C 157.496,217.414 158.329,217.748 159,218.5C 160.301,220.402 160.968,222.402 161,224.5C 158.978,223.009 157.312,223.342 156,225.5C 155.278,222.739 155.445,220.073 156.5,217.5 Z"/></g>
<g><path style="opacity:1" fill="#102b11" d="M 233.5,219.5 C 233.815,221.069 233.815,222.735 233.5,224.5C 230.316,222.586 226.649,221.92 222.5,222.5C 222.5,222.167 222.5,221.833 222.5,221.5C 226.367,221.758 230.034,221.092 233.5,219.5 Z"/></g>
<g><path style="opacity:1" fill="#233b14" d="M 49.5,190.5 C 50.1834,192.176 51.5168,192.843 53.5,192.5C 54.2159,197.39 52.8826,201.556 49.5,205C 51.4727,205.495 53.4727,205.662 55.5,205.5C 55.7507,208.909 55.4173,212.242 54.5,215.5C 55.9905,216.244 57.4905,216.91 59,217.5C 59.1667,218.5 59.3333,219.5 59.5,220.5C 59.6598,222.355 58.9931,223.688 57.5,224.5C 57.5,222.167 57.5,219.833 57.5,217.5C 49.4038,218.604 45.7371,223.27 46.5,231.5C 45.5269,229.052 45.1936,226.385 45.5,223.5C 44.5,223.5 43.5,223.5 42.5,223.5C 42.5,222.167 42.5,220.833 42.5,219.5C 41.6755,215.876 40.6755,212.21 39.5,208.5C 47.8234,206.85 52.1567,201.85 52.5,193.5C 46.56,192.968 42.2267,195.302 39.5,200.5C 39.4621,198.364 38.7954,197.031 37.5,196.5C 41.5927,194.691 45.5927,192.691 49.5,190.5 Z"/></g>
<g><path style="opacity:1" fill="#f0c00f" d="M 42.5,219.5 C 41.7497,210.622 45.7497,206.288 54.5,206.5C 54.7886,209.649 54.2886,212.649 53,215.5C 50.079,217.377 47.2456,219.377 44.5,221.5C 43.8182,220.757 43.1515,220.091 42.5,219.5 Z"/></g>
<g><path style="opacity:1" fill="#464646" d="M 134.5,219.5 C 136.624,220.031 138.124,221.365 139,223.5C 139.333,222.167 139.667,220.833 140,219.5C 140.814,221.902 140.647,224.235 139.5,226.5C 138.667,225.5 137.833,224.5 137,223.5C 136.751,224.624 136.251,225.624 135.5,226.5C 134.526,224.257 134.192,221.924 134.5,219.5 Z"/></g>
<g><path style="opacity:1" fill="#616161" d="M 144.5,218.5 C 150.099,218.135 152.099,220.635 150.5,226C 148.866,226.494 147.199,226.66 145.5,226.5C 145.167,223.833 144.833,221.167 144.5,218.5 Z"/></g>
<g><path style="opacity:1" fill="#483d07" d="M 220.5,223.5 C 220.842,222.662 221.508,222.328 222.5,222.5C 226.649,221.92 230.316,222.586 233.5,224.5C 233.672,225.492 233.338,226.158 232.5,226.5C 232.5,225.5 232.5,224.5 232.5,223.5C 228.5,223.5 224.5,223.5 220.5,223.5 Z"/></g>
<g><path style="opacity:1" fill="#323232" d="M 127.5,218.5 C 128.586,218.62 129.253,219.287 129.5,220.5C 130.331,222.473 130.498,224.473 130,226.5C 129.481,225.484 128.647,224.818 127.5,224.5C 126.218,225.137 125.218,225.137 124.5,224.5C 125.513,222.473 126.513,220.473 127.5,218.5 Z"/></g>
<g><path style="opacity:1" fill="#f3c20f" d="M 220.5,223.5 C 224.5,223.5 228.5,223.5 232.5,223.5C 232.5,224.5 232.5,225.5 232.5,226.5C 231.197,228.142 229.864,229.809 228.5,231.5C 224.901,232.344 221.234,232.677 217.5,232.5C 216.016,231.527 215.516,230.193 216,228.5C 217.707,226.963 219.207,225.296 220.5,223.5 Z"/></g>
<g><path style="opacity:1" fill="#545454" d="M 118.5,222.5 C 120.332,223.14 120.665,224.14 119.5,225.5C 118.614,224.675 118.281,223.675 118.5,222.5 Z"/></g>
<g><path style="opacity:1" fill="#264216" d="M 57.5,226.5 C 57.4894,228.017 56.8228,229.184 55.5,230C 56.0944,230.464 56.7611,230.631 57.5,230.5C 53.0479,233.146 51.0479,237.146 51.5,242.5C 50.6862,240.369 50.1862,238.036 50,235.5C 49.1072,236.711 48.2739,236.711 47.5,235.5C 46.7542,234.264 46.4208,232.93 46.5,231.5C 47.1515,232.091 47.8182,232.757 48.5,233.5C 51.8049,231.525 54.8049,229.191 57.5,226.5 Z"/></g>
<g><path style="opacity:1" fill="#eebf0f" d="M 61.5,229.5 C 63.9036,235.826 62.237,240.826 56.5,244.5C 53.7599,247.327 52.0932,246.66 51.5,242.5C 51.0479,237.146 53.0479,233.146 57.5,230.5C 58.8333,230.167 60.1667,229.833 61.5,229.5 Z"/></g>
<g><path style="opacity:1" fill="#9b9a9a" d="M 118.5,229.5 C 124.7,231.004 131.033,231.67 137.5,231.5C 136.156,236.515 132.823,238.515 127.5,237.5C 130.103,231.468 129.437,231.135 125.5,236.5C 124.391,236.557 123.391,236.89 122.5,237.5C 119.612,238.01 117.279,237.344 115.5,235.5C 116.529,233.483 117.529,231.483 118.5,229.5 Z"/></g>
<g><path style="opacity:1" fill="#9b9998" d="M 157.5,229.5 C 158.529,231.517 159.529,233.517 160.5,235.5C 159.666,236.748 158.333,237.415 156.5,237.5C 154.452,237.328 152.452,236.995 150.5,236.5C 147.297,231.045 146.297,231.379 147.5,237.5C 147.167,237.5 146.833,237.5 146.5,237.5C 141.83,238.163 139.164,236.163 138.5,231.5C 144.928,231.291 151.261,230.624 157.5,229.5 Z"/></g>
<g><path style="opacity:1" fill="#0f1610" d="M 137.5,231.5 C 137.833,231.5 138.167,231.5 138.5,231.5C 139.164,236.163 141.83,238.163 146.5,237.5C 145.432,238.434 144.099,238.768 142.5,238.5C 142.682,240.675 143.349,242.675 144.5,244.5C 144.457,245.416 144.124,246.083 143.5,246.5C 143.548,243.708 142.215,241.875 139.5,241C 136.562,240.288 133.896,240.788 131.5,242.5C 132.141,241.518 132.807,240.518 133.5,239.5C 131.369,238.831 129.369,238.165 127.5,237.5C 132.823,238.515 136.156,236.515 137.5,231.5 Z"/></g>
<g><path style="opacity:1" fill="#193013" d="M 228.5,231.5 C 227.34,233.203 228.007,233.869 230.5,233.5C 230.737,234.791 230.404,235.791 229.5,236.5C 227.721,234.656 225.388,233.99 222.5,234.5C 220.5,234.5 218.5,234.5 216.5,234.5C 216.833,233.833 217.167,233.167 217.5,232.5C 221.234,232.677 224.901,232.344 228.5,231.5 Z"/></g>
<g><path style="opacity:1" fill="#2a2b2a" d="M 150.5,236.5 C 149.391,236.557 148.391,236.89 147.5,237.5C 146.297,231.379 147.297,231.045 150.5,236.5 Z"/></g>
<g><path style="opacity:1" fill="#7b6206" d="M 222.5,234.5 C 225.388,233.99 227.721,234.656 229.5,236.5C 229.167,236.5 228.833,236.5 228.5,236.5C 226.5,235.833 224.5,235.167 222.5,234.5 Z"/></g>
<g><path style="opacity:1" fill="#181f19" d="M 127.5,237.5 C 126.833,237.167 126.167,236.833 125.5,236.5C 129.437,231.135 130.103,231.468 127.5,237.5 Z"/></g>
<g><path style="opacity:1" fill="#f1c10f" d="M 216.5,234.5 C 218.5,234.5 220.5,234.5 222.5,234.5C 224.5,235.167 226.5,235.833 228.5,236.5C 227.167,239.833 224.833,242.167 221.5,243.5C 219.167,243.5 216.833,243.5 214.5,243.5C 213.235,242.521 211.901,241.521 210.5,240.5C 212.215,238.118 214.215,236.118 216.5,234.5 Z"/></g>
<g><path style="opacity:1" fill="#09180a" d="M 115.5,235.5 C 117.279,237.344 119.612,238.01 122.5,237.5C 119.492,238.921 116.492,238.754 113.5,237C 114.044,236.283 114.711,235.783 115.5,235.5 Z"/></g>
<g><path style="opacity:1" fill="#0f2313" d="M 160.5,235.5 C 161.478,235.811 162.145,236.478 162.5,237.5C 158.878,238.659 155.211,238.825 151.5,238C 150.944,237.617 150.611,237.117 150.5,236.5C 152.452,236.995 154.452,237.328 156.5,237.5C 158.333,237.415 159.666,236.748 160.5,235.5 Z"/></g>
<g><path style="opacity:1" fill="#2b350e" d="M 61.5,229.5 C 61.56,228.957 61.8933,228.624 62.5,228.5C 63.4892,232.107 63.8226,235.774 63.5,239.5C 64.5,239.5 65.5,239.5 66.5,239.5C 63.5106,241.003 60.8439,243.003 58.5,245.5C 58.1583,244.662 57.4916,244.328 56.5,244.5C 62.237,240.826 63.9036,235.826 61.5,229.5 Z"/></g>
<g><path style="opacity:1" fill="#f1c10f" d="M 66.5,239.5 C 67.1667,239.833 67.8333,240.167 68.5,240.5C 68.6646,243.518 68.498,246.518 68,249.5C 65.8733,251.114 64.3733,253.114 63.5,255.5C 62.5178,256.141 61.5178,256.807 60.5,257.5C 59.8933,257.376 59.56,257.043 59.5,256.5C 58.6758,253.236 58.3424,249.902 58.5,246.5C 58.5,246.167 58.5,245.833 58.5,245.5C 60.8439,243.003 63.5106,241.003 66.5,239.5 Z"/></g>
<g><path style="opacity:1" fill="#a09e9f" d="M 143.5,246.5 C 141.439,247.751 141.106,249.418 142.5,251.5C 145.084,252.393 147.751,252.726 150.5,252.5C 152.36,253.939 154.027,255.605 155.5,257.5C 156.734,259.398 156.401,261.065 154.5,262.5C 150.973,262.504 147.473,262.837 144,263.5C 141.105,263.468 138.605,262.468 136.5,260.5C 135.893,260.624 135.56,260.957 135.5,261.5C 129.822,265.082 125.822,263.749 123.5,257.5C 124.496,257.586 125.329,257.252 126,256.5C 126.44,254.134 126.94,251.801 127.5,249.5C 128.468,246.9 129.801,244.566 131.5,242.5C 133.896,240.788 136.562,240.288 139.5,241C 142.215,241.875 143.548,243.708 143.5,246.5 Z"/></g>
<g><path style="opacity:1" fill="#34390f" d="M 214.5,243.5 C 216.833,243.5 219.167,243.5 221.5,243.5C 221.082,244.222 220.416,244.722 219.5,245C 221.376,246.017 223.376,246.851 225.5,247.5C 225.145,248.522 224.478,249.189 223.5,249.5C 219.255,245.646 214.255,244.646 208.5,246.5C 210.249,245.015 212.249,244.015 214.5,243.5 Z"/></g>
<g><path style="opacity:1" fill="#f1c10f" d="M 223.5,249.5 C 221.833,250.5 220.5,251.833 219.5,253.5C 215.468,254.766 211.468,254.766 207.5,253.5C 206.645,252.469 205.978,251.303 205.5,250C 206.544,248.826 207.544,247.659 208.5,246.5C 214.255,244.646 219.255,245.646 223.5,249.5 Z"/></g>
<g><path style="opacity:1" fill="#edbe0f" d="M 76.5,252.5 C 76.5955,255.692 75.9288,258.692 74.5,261.5C 72.7775,263.253 71.2775,265.253 70,267.5C 68.3743,266.045 67.2076,264.378 66.5,262.5C 65.6644,257.406 66.9978,253.073 70.5,249.5C 73.8375,247.839 75.8375,248.839 76.5,252.5 Z"/></g>
<g><path style="opacity:1" fill="#204227" d="M 143.5,246.5 C 143.461,247.583 143.127,248.583 142.5,249.5C 144.766,250.314 147.1,250.814 149.5,251C 150.056,251.383 150.389,251.883 150.5,252.5C 147.751,252.726 145.084,252.393 142.5,251.5C 141.106,249.418 141.439,247.751 143.5,246.5 Z"/></g>
<g><path style="opacity:1" fill="#282e0d" d="M 68.5,240.5 C 69.1667,243.5 69.8333,246.5 70.5,249.5C 66.9978,253.073 65.6644,257.406 66.5,262.5C 65.6829,260.031 65.1829,257.365 65,254.5C 64.6174,255.056 64.1174,255.389 63.5,255.5C 64.3733,253.114 65.8733,251.114 68,249.5C 68.498,246.518 68.6646,243.518 68.5,240.5 Z"/></g>
<g><path style="opacity:1" fill="#2a300d" d="M 207.5,253.5 C 211.468,254.766 215.468,254.766 219.5,253.5C 219.389,254.117 219.056,254.617 218.5,255C 215.964,255.186 213.631,255.686 211.5,256.5C 208.214,255.793 204.881,255.46 201.5,255.5C 203.5,254.833 205.5,254.167 207.5,253.5 Z"/></g>
<g><path style="opacity:1" fill="#4f440b" d="M 58.5,246.5 C 58.3424,249.902 58.6758,253.236 59.5,256.5C 58.8826,256.389 58.3826,256.056 58,255.5C 57.1955,252.304 57.3622,249.304 58.5,246.5 Z"/></g>
<g><path style="opacity:1" fill="#2e3b31" d="M 127.5,249.5 C 126.94,251.801 126.44,254.134 126,256.5C 125.329,257.252 124.496,257.586 123.5,257.5C 124.709,254.692 126.043,252.025 127.5,249.5 Z"/></g>
<g><path style="opacity:1" fill="#f0c00f" d="M 201.5,255.5 C 204.881,255.46 208.214,255.793 211.5,256.5C 212.718,257.161 214.051,257.828 215.5,258.5C 214.143,260.186 212.81,261.852 211.5,263.5C 208.201,264.376 204.868,264.543 201.5,264C 198.921,262.924 197.254,261.091 196.5,258.5C 198.368,257.737 200.035,256.737 201.5,255.5 Z"/></g>
<g><path style="opacity:1" fill="#1b3211" d="M 76.5,252.5 C 76.9724,254.531 77.9724,256.198 79.5,257.5C 78.396,259.389 77.0627,261.055 75.5,262.5C 75.5,261.833 75.1667,261.5 74.5,261.5C 75.9288,258.692 76.5955,255.692 76.5,252.5 Z"/></g>
<g><path style="opacity:1" fill="#ecbd0e" d="M 79.5,257.5 C 82.1156,258.363 84.1156,260.03 85.5,262.5C 85.1455,267.55 83.8121,272.217 81.5,276.5C 76.9867,272.974 74.9867,268.307 75.5,262.5C 77.0627,261.055 78.396,259.389 79.5,257.5 Z"/></g>
<g><path style="opacity:1" fill="#1f3523" d="M 155.5,257.5 C 157.344,258.204 157.844,259.537 157,261.5C 156.329,262.252 155.496,262.586 154.5,262.5C 156.401,261.065 156.734,259.398 155.5,257.5 Z"/></g>
<g><path style="opacity:1" fill="#263128" d="M 135.5,261.5 C 135.56,260.957 135.893,260.624 136.5,260.5C 138.605,262.468 141.105,263.468 144,263.5C 147.473,262.837 150.973,262.504 154.5,262.5C 147.987,265.374 141.653,265.04 135.5,261.5 Z"/></g>
<g><path style="opacity:1" fill="#ebbc0e" d="M 195.5,263.5 C 198.297,265.061 201.297,266.394 204.5,267.5C 203.143,269.186 201.81,270.852 200.5,272.5C 194.512,274.673 189.512,273.339 185.5,268.5C 187.654,264.756 190.988,263.089 195.5,263.5 Z"/></g>
<g><path style="opacity:1" fill="#f0c00f" d="M 95.5,270.5 C 95.5328,274.869 95.1995,279.202 94.5,283.5C 93.0413,283.567 91.7079,283.234 90.5,282.5C 88.7745,280.772 87.4411,278.772 86.5,276.5C 86.3677,273.43 86.701,270.43 87.5,267.5C 88.4822,266.859 89.4822,266.193 90.5,265.5C 92.5486,266.882 94.2153,268.548 95.5,270.5 Z"/></g>
<g><path style="opacity:1" fill="#1e2c0e" d="M 196.5,258.5 C 197.254,261.091 198.921,262.924 201.5,264C 204.868,264.543 208.201,264.376 211.5,263.5C 207.629,266.23 203.962,269.23 200.5,272.5C 201.81,270.852 203.143,269.186 204.5,267.5C 201.297,266.394 198.297,265.061 195.5,263.5C 196.239,263.631 196.906,263.464 197.5,263C 195.534,261.653 195.201,260.153 196.5,258.5 Z"/></g>
<g><path style="opacity:1" fill="#343c0f" d="M 107.5,278.5 C 105.704,277.207 104.037,275.707 102.5,274C 101.552,273.517 100.552,273.351 99.5,273.5C 99.3691,272.624 99.7025,271.957 100.5,271.5C 103.877,272.877 106.211,275.21 107.5,278.5 Z"/></g>
<g><path style="opacity:1" fill="#2b3d12" d="M 185.5,268.5 C 189.512,273.339 194.512,274.673 200.5,272.5C 198.189,274.068 195.522,274.902 192.5,275C 195.018,276.14 195.018,277.306 192.5,278.5C 192.586,277.504 192.252,276.671 191.5,276C 187.285,273.056 182.618,271.889 177.5,272.5C 180.305,271.681 183.305,271.181 186.5,271C 185.748,270.329 185.414,269.496 185.5,268.5 Z"/></g>
<g><path style="opacity:1" fill="#f2c10f" d="M 177.5,272.5 C 182.618,271.889 187.285,273.056 191.5,276C 192.252,276.671 192.586,277.504 192.5,278.5C 191.833,278.5 191.5,278.833 191.5,279.5C 186.025,282.418 180.858,282.085 176,278.5C 174.481,276.861 174.314,275.194 175.5,273.5C 176.492,273.672 177.158,273.338 177.5,272.5 Z"/></g>
<g><path style="opacity:1" fill="#274216" d="M 95.5,270.5 C 96.5585,271.6 97.3918,272.934 98,274.5C 98.3826,273.944 98.8826,273.611 99.5,273.5C 98.6561,277.099 98.3227,280.766 98.5,284.5C 97.0335,281.742 96.3668,282.075 96.5,285.5C 93.784,285.614 91.784,284.614 90.5,282.5C 91.7079,283.234 93.0413,283.567 94.5,283.5C 95.1995,279.202 95.5328,274.869 95.5,270.5 Z"/></g>
<g><path style="opacity:1" fill="#f4c30f" d="M 99.5,273.5 C 100.552,273.351 101.552,273.517 102.5,274C 104.037,275.707 105.704,277.207 107.5,278.5C 108.089,282.971 107.423,286.971 105.5,290.5C 102.527,289.19 100.193,287.19 98.5,284.5C 98.3227,280.766 98.6561,277.099 99.5,273.5 Z"/></g>
<g><path style="opacity:1" fill="#1b441a" d="M 85.5,262.5 C 86.1667,264.167 86.8333,265.833 87.5,267.5C 86.701,270.43 86.3677,273.43 86.5,276.5C 85.8826,276.389 85.3826,276.056 85,275.5C 84.3716,278.954 83.2049,279.287 81.5,276.5C 83.8121,272.217 85.1455,267.55 85.5,262.5 Z"/></g>
<g><path style="opacity:1" fill="#eebe0f" d="M 165.5,278.5 C 168.187,278.336 170.854,278.503 173.5,279C 175.667,280.5 177.833,282 180,283.5C 180.47,284.577 180.303,285.577 179.5,286.5C 177.597,286.796 175.93,287.463 174.5,288.5C 168.181,288.506 164.181,285.506 162.5,279.5C 163.609,279.443 164.609,279.11 165.5,278.5 Z"/></g>
<g><path style="opacity:1" fill="#eebe0f" d="M 111.5,280.5 C 115.94,281.276 119.273,283.61 121.5,287.5C 121.508,290.545 121.841,293.545 122.5,296.5C 121.167,296.5 119.833,296.5 118.5,296.5C 116.537,295.18 114.537,293.846 112.5,292.5C 110.412,288.641 110.079,284.641 111.5,280.5 Z"/></g>
<g><path style="opacity:1" fill="#242e0f" d="M 175.5,273.5 C 174.314,275.194 174.481,276.861 176,278.5C 180.858,282.085 186.025,282.418 191.5,279.5C 191.389,280.117 191.056,280.617 190.5,281C 187.576,281.988 184.576,282.654 181.5,283C 182.354,284.785 181.687,285.951 179.5,286.5C 180.303,285.577 180.47,284.577 180,283.5C 177.833,282 175.667,280.5 173.5,279C 170.854,278.503 168.187,278.336 165.5,278.5C 167.948,277.527 170.615,277.194 173.5,277.5C 173.157,275.517 173.824,274.183 175.5,273.5 Z"/></g>
<g><path style="opacity:1" fill="#2b2206" d="M 107.5,278.5 C 108.404,279.209 108.737,280.209 108.5,281.5C 109.069,285.329 108.402,288.663 106.5,291.5C 105.833,291.5 105.5,291.167 105.5,290.5C 107.423,286.971 108.089,282.971 107.5,278.5 Z"/></g>
<g><path style="opacity:1" fill="#11491c" d="M 111.5,280.5 C 110.079,284.641 110.412,288.641 112.5,292.5C 111.069,292.119 110.236,291.119 110,289.5C 109.517,290.448 109.351,291.448 109.5,292.5C 108.209,292.737 107.209,292.404 106.5,291.5C 108.402,288.663 109.069,285.329 108.5,281.5C 109.609,281.443 110.609,281.11 111.5,280.5 Z"/></g>
<g><path style="opacity:1" fill="#eebe0f" d="M 127.5,286.5 C 129.216,286.629 130.883,286.962 132.5,287.5C 135.025,291.217 137.025,295.217 138.5,299.5C 134.633,299.758 130.966,299.092 127.5,297.5C 125.975,295.784 124.975,293.784 124.5,291.5C 124.5,289.833 124.5,288.167 124.5,286.5C 125.5,286.5 126.5,286.5 127.5,286.5 Z"/></g>
<g><path style="opacity:1" fill="#133a15" d="M 132.5,287.5 C 130.883,286.962 129.216,286.629 127.5,286.5C 126.432,285.566 125.099,285.232 123.5,285.5C 123.205,287.735 123.539,289.735 124.5,291.5C 124.975,293.784 125.975,295.784 127.5,297.5C 124.287,297.81 121.287,297.477 118.5,296.5C 119.833,296.5 121.167,296.5 122.5,296.5C 121.841,293.545 121.508,290.545 121.5,287.5C 122.404,286.791 122.737,285.791 122.5,284.5C 126.416,284.025 129.749,285.025 132.5,287.5 Z"/></g>
<g><path style="opacity:1" fill="#907306" d="M 127.5,286.5 C 126.5,286.5 125.5,286.5 124.5,286.5C 124.5,288.167 124.5,289.833 124.5,291.5C 123.539,289.735 123.205,287.735 123.5,285.5C 125.099,285.232 126.432,285.566 127.5,286.5 Z"/></g>
<g><path style="opacity:1" fill="#f1c10f" d="M 144.5,287.5 C 145.671,288.345 147.005,289.011 148.5,289.5C 149.906,292.414 151.906,294.914 154.5,297C 151.312,298.316 147.978,298.816 144.5,298.5C 144.167,298.5 143.833,298.5 143.5,298.5C 139.71,295.927 137.71,292.26 137.5,287.5C 139.833,287.5 142.167,287.5 144.5,287.5 Z"/></g>
<g><path style="opacity:1" fill="#2c4013" d="M 162.5,279.5 C 164.181,285.506 168.181,288.506 174.5,288.5C 171.48,290.818 168.147,292.818 164.5,294.5C 165.574,293.115 166.907,291.949 168.5,291C 166.208,289.71 164.208,288.043 162.5,286C 158.706,284.28 154.873,284.114 151,285.5C 152.247,291.562 156.08,294.562 162.5,294.5C 159.126,295.132 156.126,296.632 153.5,299C 150.304,299.805 147.304,299.638 144.5,298.5C 147.978,298.816 151.312,298.316 154.5,297C 151.906,294.914 149.906,292.414 148.5,289.5C 149.239,289.631 149.906,289.464 150.5,289C 149.167,287.333 149.167,285.667 150.5,284C 154.152,283.501 157.818,283.335 161.5,283.5C 161.232,281.901 161.566,280.568 162.5,279.5 Z"/></g>
<g><path style="opacity:1" fill="#efc00f" d="M 164.5,294.5 C 163.833,294.5 163.167,294.5 162.5,294.5C 156.08,294.562 152.247,291.562 151,285.5C 154.873,284.114 158.706,284.28 162.5,286C 164.208,288.043 166.208,289.71 168.5,291C 166.907,291.949 165.574,293.115 164.5,294.5 Z"/></g>
<g><path style="opacity:1" fill="#1d3c16" d="M 144.5,287.5 C 142.167,287.5 139.833,287.5 137.5,287.5C 137.71,292.26 139.71,295.927 143.5,298.5C 141.883,299.038 140.216,299.371 138.5,299.5C 137.025,295.217 135.025,291.217 132.5,287.5C 136.351,286.676 140.351,286.676 144.5,287.5 Z"/></g>
</svg>
